<?xml version="1.0" encoding="UTF-8"?><svg id="a" xmlns="http://www.w3.org/2000/svg" viewBox="0 0 392.99 422.03"><defs><style>.b,.c,.d{fill:#231f20;}.e,.f,.g{stroke-width:.75px;}.e,.f,.g,.h,.i,.j,.c,.d,.k,.l,.m,.n,.o,.p{stroke-miterlimit:10;}.e,.f,.g,.h,.i,.j,.k,.l,.m,.n,.o,.p{fill:none;}.e,.h,.c,.k,.p{stroke:#f2f2f3;}.f,.j,.l,.n{stroke:#231f20;}.g,.i,.d,.m,.o{stroke:#3a2212;}.h,.i,.j{stroke-width:1.03px;}.k,.l,.m{stroke-width:2px;}</style></defs><path class="p" d="M0,418.49H15.73v-16.7s1.75-4.66,8.55-4.66c.29-.29,0-12.43,0-12.43h3.69v-27.97l-3.88-7.38,33.79-41.95,35.35,39.62-2.91,6.02v31.46h6.99v-32.04l-2.33-3.69v-3.11l39.23-43.31,38.07,43.31-1.62,5.09v3.07l28.03-36.9,29.33,36.9,30.1-35.54,29.33,32.82v-7.38l-1.75-2.33,44.86-48.94,33.21,47.78v81.31h29.23"/><polygon class="e" points="35.39 362.65 40.53 362.65 45.66 362.65 45.66 347.3 40.53 347.3 35.39 347.3 35.39 362.65"/><line class="e" x1="40.53" y1="347.3" x2="40.53" y2="362.65"/><line class="e" x1="45.66" y1="352.87" x2="35.39" y2="352.87"/><polygon class="e" points="35.39 387.28 40.53 387.28 45.66 387.28 45.66 371.93 40.53 371.93 35.39 371.93 35.39 387.28"/><line class="e" x1="40.53" y1="371.93" x2="40.53" y2="387.28"/><line class="e" x1="45.66" y1="377.5" x2="35.39" y2="377.5"/><polygon class="e" points="60.27 362.65 65.4 362.65 70.54 362.65 70.54 347.3 65.4 347.3 60.27 347.3 60.27 362.65"/><line class="e" x1="65.4" y1="347.3" x2="65.4" y2="362.65"/><line class="e" x1="70.54" y1="352.87" x2="60.27" y2="352.87"/><polygon class="e" points="72.64 362.65 77.78 362.65 82.92 362.65 82.92 347.3 77.78 347.3 72.64 347.3 72.64 362.65"/><line class="e" x1="77.78" y1="347.3" x2="77.78" y2="362.65"/><line class="e" x1="82.92" y1="352.87" x2="72.64" y2="352.87"/><polygon class="e" points="60.27 386.53 65.4 386.53 70.54 386.53 70.54 371.19 65.4 371.19 60.27 371.19 60.27 386.53"/><line class="e" x1="65.4" y1="371.19" x2="65.4" y2="386.53"/><line class="e" x1="70.54" y1="376.76" x2="60.27" y2="376.76"/><polygon class="e" points="72.64 386.53 77.78 386.53 82.92 386.53 82.92 371.19 77.78 371.19 72.64 371.19 72.64 386.53"/><line class="e" x1="77.78" y1="371.19" x2="77.78" y2="386.53"/><line class="e" x1="82.92" y1="376.76" x2="72.64" y2="376.76"/><polyline class="k" points="24.38 390.18 90.82 390.18 90.82 420.1"/><path class="p" d="M83.63,420.1v-21.73H45.66v21.15h-7.07v-16.98s-12.66-6.76-20.43,.29v16.27"/><circle class="e" cx="58.43" cy="335.5" r="3.3"/><polyline class="k" points="25.94 352.87 57.6 313.14 91.37 350.85"/><polyline class="p" points="95.99 350.39 134.3 307.87 171.05 349.85"/><line class="p" x1="97.3" y1="384.5" x2="97.3" y2="420.1"/><polyline class="k" points="97.3 387.34 170.65 387.34 170.65 353.81"/><line class="p" x1="170.65" y1="387.34" x2="170.65" y2="421.53"/><polyline class="p" points="97.3 415.44 124.47 415.44 124.47 420.1 146.24 420.1 146.24 415.44 170.65 415.44"/><polyline class="p" points="101.81 415.44 101.81 393.67 121.98 393.67 121.98 415.44"/><polyline class="p" points="124.47 415.44 124.47 393.67 146.24 393.67 146.24 415.44"/><polyline class="p" points="148.23 415.44 148.23 393.67 166.58 393.67 166.58 415.44"/><polygon class="e" points="130.55 334.7 134.91 334.7 139.27 334.7 139.27 321.88 135.16 321.88 130.55 321.88 130.55 334.7"/><rect class="e" x="109.91" y="341.38" width="9.57" height="15.9"/><line class="e" x1="114.69" y1="341.38" x2="114.69" y2="357.28"/><line class="e" x1="109.91" y1="347.26" x2="119.48" y2="347.26"/><rect class="e" x="122.86" y="341.38" width="9.57" height="15.9"/><line class="e" x1="127.65" y1="341.38" x2="127.65" y2="357.28"/><line class="e" x1="122.86" y1="347.26" x2="132.44" y2="347.26"/><rect class="e" x="136.67" y="341.38" width="9.57" height="15.9"/><line class="e" x1="141.46" y1="341.38" x2="141.46" y2="357.28"/><line class="e" x1="136.67" y1="347.26" x2="146.24" y2="347.26"/><rect class="e" x="149.65" y="341.38" width="9.57" height="15.9"/><line class="e" x1="154.44" y1="341.38" x2="154.44" y2="357.28"/><line class="e" x1="149.65" y1="347.26" x2="159.22" y2="347.26"/><rect class="e" x="177.34" y="355.47" width="9.57" height="13.48"/><line class="e" x1="182.13" y1="355.47" x2="182.13" y2="368.95"/><line class="e" x1="177.34" y1="360.46" x2="186.91" y2="360.46"/><rect class="e" x="190.21" y="355.47" width="9.57" height="13.48"/><line class="e" x1="195" y1="355.47" x2="195" y2="368.95"/><line class="e" x1="190.21" y1="360.46" x2="199.78" y2="360.46"/><rect class="e" x="211.8" y="355.47" width="9.57" height="13.48"/><line class="e" x1="216.59" y1="355.47" x2="216.59" y2="368.95"/><line class="e" x1="211.8" y1="360.46" x2="221.37" y2="360.46"/><rect class="e" x="236.37" y="350.53" width="8.79" height="17.56"/><line class="e" x1="240.76" y1="350.53" x2="240.76" y2="368.09"/><line class="e" x1="236.37" y1="357.03" x2="245.16" y2="357.03"/><rect class="e" x="253.32" y="350.53" width="8.79" height="17.56"/><line class="e" x1="257.72" y1="350.53" x2="257.72" y2="368.09"/><line class="e" x1="253.32" y1="357.03" x2="262.11" y2="357.03"/><rect class="e" x="268.18" y="350.53" width="8.79" height="17.56"/><line class="e" x1="272.58" y1="350.53" x2="272.58" y2="368.09"/><line class="e" x1="268.18" y1="357.03" x2="276.97" y2="357.03"/><rect class="e" x="268.18" y="374.05" width="8.79" height="15.52"/><line class="e" x1="272.58" y1="374.05" x2="272.58" y2="389.58"/><line class="e" x1="268.18" y1="379.8" x2="276.97" y2="379.8"/><rect class="e" x="253.32" y="374.05" width="8.79" height="15.52"/><line class="e" x1="257.72" y1="374.05" x2="257.72" y2="389.58"/><line class="e" x1="253.32" y1="379.8" x2="262.11" y2="379.8"/><polygon class="e" points="243.82 389.58 235.03 389.58 235.03 385.6 235.03 374.05 243.82 374.05 243.82 389.58"/><line class="e" x1="239.43" y1="374.05" x2="239.43" y2="389.58"/><line class="e" x1="235.03" y1="379.8" x2="243.82" y2="379.8"/><rect class="e" x="211.8" y="376.09" width="9.57" height="13.48"/><line class="e" x1="216.59" y1="376.09" x2="216.59" y2="389.58"/><line class="e" x1="211.8" y1="381.08" x2="221.37" y2="381.08"/><rect class="e" x="190.21" y="376.09" width="9.57" height="13.48"/><line class="e" x1="195" y1="376.09" x2="195" y2="389.58"/><line class="e" x1="190.21" y1="381.08" x2="199.78" y2="381.08"/><rect class="e" x="177.34" y="376.09" width="9.57" height="13.48"/><line class="e" x1="182.13" y1="376.09" x2="182.13" y2="389.58"/><line class="e" x1="177.34" y1="381.08" x2="186.91" y2="381.08"/><rect class="e" x="109.91" y="366.94" width="9.57" height="15.9"/><line class="e" x1="114.69" y1="366.94" x2="114.69" y2="382.83"/><line class="e" x1="109.91" y1="372.82" x2="119.48" y2="372.82"/><rect class="e" x="122.86" y="366.94" width="9.57" height="15.9"/><line class="e" x1="127.65" y1="366.94" x2="127.65" y2="382.83"/><line class="e" x1="122.86" y1="372.82" x2="132.44" y2="372.82"/><rect class="e" x="136.67" y="366.94" width="9.57" height="15.9"/><line class="e" x1="141.46" y1="366.94" x2="141.46" y2="382.83"/><line class="e" x1="136.67" y1="372.82" x2="146.24" y2="372.82"/><rect class="e" x="149.65" y="366.94" width="9.57" height="15.9"/><line class="e" x1="154.44" y1="366.94" x2="154.44" y2="382.83"/><line class="e" x1="149.65" y1="372.82" x2="159.22" y2="372.82"/><line class="e" x1="135.16" y1="321.88" x2="135.16" y2="334.7"/><line class="e" x1="130.55" y1="327.11" x2="139.27" y2="327.11"/><line class="e" x1="58.43" y1="332.2" x2="58.43" y2="338.8"/><line class="e" x1="55.13" y1="335.5" x2="61.74" y2="335.5"/><circle class="e" cx="199.78" cy="341.38" r="3.3"/><line class="e" x1="199.78" y1="338.08" x2="199.78" y2="344.68"/><line class="e" x1="196.48" y1="341.38" x2="203.08" y2="341.38"/><polyline class="k" points="174.56 421.53 174.56 400.64 194.28 400.64 194.28 421.53"/><polyline class="p" points="198.67 421.53 198.67 400.64 224.34 400.64 224.34 421.53"/><line class="p" x1="228" y1="353.81" x2="228" y2="421.53"/><line class="p" x1="215.18" y1="400.64" x2="215.18" y2="421.53"/><polyline class="k" points="170.65 357.28 198.59 321.49 228 357.28 258.13 322.29 287.43 354.83"/><polyline class="p" points="287.43 351.1 287.43 360.46 287.43 420.87"/><line class="e" x1="243.82" y1="385.98" x2="235.03" y2="385.98"/><line class="e" x1="253.32" y1="385.19" x2="262.11" y2="385.19"/><line class="e" x1="268.18" y1="385.98" x2="276.97" y2="385.98"/><polyline class="h" points="230.73 420.87 230.73 398.7 241.37 398.7 241.37 421.53"/><polyline class="k" points="243.82 421.53 243.82 399.42 278.33 399.42 278.33 421.53"/><path class="e" d="M255.15,342.46h2.78v-6.76s-.21-1.04-1.35-1.04-1.43,1.01-1.43,1.01v6.79Z"/><path class="p" d="M290.43,420.87v-22.71s1.74-5.4,9.26-5.4,8.49,5.01,8.49,5.01v23.1h14.46v-27.34h18.71v27.34"/><path class="p" d="M326.11,421.53v-17.59s.77-5.59,6.17-5.59,5.98,5.59,5.98,5.59v16.93"/><polyline class="p" points="287.43 383.62 312.76 383.62 312.76 420.87"/><rect class="p" x="329.63" y="343.31" width="9.65" height="15.57"/><polyline class="p" points="339.28 348.07 329.63 348.07 329.63 353.81 339.28 353.81"/><line class="p" x1="334.46" y1="343.31" x2="334.46" y2="358.88"/><rect class="p" x="303.11" y="343.31" width="9.65" height="15.57"/><polyline class="p" points="312.76 348.07 303.11 348.07 303.11 353.81 312.76 353.81"/><line class="p" x1="307.93" y1="343.31" x2="307.93" y2="358.88"/><rect class="p" x="303.11" y="368.03" width="9.65" height="15.57"/><polyline class="p" points="312.76 372.8 303.11 372.8 303.11 378.53 312.76 378.53"/><line class="p" x1="307.93" y1="368.03" x2="307.93" y2="383.61"/><rect class="p" x="329.63" y="368.03" width="9.65" height="15.57"/><polyline class="p" points="339.28 372.8 329.63 372.8 329.63 378.53 339.28 378.53"/><line class="p" x1="334.46" y1="368.03" x2="334.46" y2="383.61"/><rect class="p" x="344.33" y="368.03" width="9.65" height="15.57"/><polyline class="p" points="353.98 372.8 344.33 372.8 344.33 378.53 353.98 378.53"/><line class="p" x1="349.15" y1="368.03" x2="349.15" y2="383.61"/><rect class="p" x="344.33" y="343.74" width="9.65" height="15.57"/><polyline class="p" points="353.98 348.5 344.33 348.5 344.33 354.24 353.98 354.24"/><line class="p" x1="349.15" y1="343.74" x2="349.15" y2="359.31"/><circle class="p" cx="327.58" cy="321.32" r="6.64"/><rect class="p" x="316.2" y="319.47" width="3.01" height="9.38"/><rect class="p" x="336.73" y="319.47" width="3.01" height="9.38"/><rect class="c" x="326.93" y="316.19" width="1.3" height="1.3" rx=".25" ry=".25"/><rect class="c" x="329.24" y="316.84" width="1.3" height="1.3" rx=".25" ry=".25"/><rect class="c" x="330.94" y="318.47" width="1.3" height="1.3" rx=".25" ry=".25"/><rect class="c" x="331.59" y="320.67" width="1.3" height="1.3" rx=".25" ry=".25"/><rect class="c" x="327.05" y="316.19" width="1.3" height="1.3" rx=".25" ry=".25" transform="translate(655.4 633.68) rotate(-180)"/><rect class="c" x="324.74" y="316.84" width="1.3" height="1.3" rx=".25" ry=".25" transform="translate(650.79 634.98) rotate(-180)"/><rect class="c" x="323.04" y="318.47" width="1.3" height="1.3" rx=".25" ry=".25" transform="translate(647.39 638.24) rotate(-180)"/><rect class="c" x="322.39" y="320.67" width="1.3" height="1.3" rx=".25" ry=".25" transform="translate(646.09 642.63) rotate(-180)"/><rect class="c" x="327.07" y="325.14" width="1.3" height="1.3" rx=".25" ry=".25" transform="translate(655.44 651.59) rotate(180)"/><rect class="c" x="324.76" y="324.49" width="1.3" height="1.3" rx=".25" ry=".25" transform="translate(650.83 650.29) rotate(180)"/><rect class="c" x="323.06" y="322.86" width="1.3" height="1.3" rx=".25" ry=".25" transform="translate(647.43 647.02) rotate(180)"/><rect class="c" x="327.07" y="325.14" width="1.3" height="1.3" rx=".25" ry=".25"/><rect class="c" x="329.38" y="324.49" width="1.3" height="1.3" rx=".25" ry=".25"/><rect class="c" x="331.08" y="322.86" width="1.3" height="1.3" rx=".25" ry=".25"/><rect class="c" x="326.7" y="320.67" width="2" height="1.3" rx=".25" ry=".25" transform="translate(655.4 642.63) rotate(180)"/><polyline class="p" points="287.43 343.72 330.54 296.51 363.76 344.92"/><path class="o" d="M0,275.72H15.73v-16.7s1.75-4.66,8.55-4.66c.29-.29,0-12.43,0-12.43h3.69v-27.97l-3.88-7.38,33.79-41.95,35.35,39.62-2.91,6.02v31.46h6.99v-32.04l-2.33-3.69v-3.11l39.23-43.31,38.07,43.31-1.62,5.09v3.07l28.03-36.9,29.33,36.9,30.1-35.54,29.33,32.82v-7.38l-1.75-2.33,44.86-48.94,33.21,47.78v81.31h29.23"/><polygon class="g" points="35.39 219.88 40.53 219.88 45.66 219.88 45.66 204.53 40.53 204.53 35.39 204.53 35.39 219.88"/><line class="g" x1="40.53" y1="204.53" x2="40.53" y2="219.88"/><line class="g" x1="45.66" y1="210.1" x2="35.39" y2="210.1"/><polygon class="g" points="35.39 244.51 40.53 244.51 45.66 244.51 45.66 229.16 40.53 229.16 35.39 229.16 35.39 244.51"/><line class="g" x1="40.53" y1="229.16" x2="40.53" y2="244.51"/><line class="g" x1="45.66" y1="234.73" x2="35.39" y2="234.73"/><polygon class="g" points="60.27 219.88 65.4 219.88 70.54 219.88 70.54 204.53 65.4 204.53 60.27 204.53 60.27 219.88"/><line class="g" x1="65.4" y1="204.53" x2="65.4" y2="219.88"/><line class="g" x1="70.54" y1="210.1" x2="60.27" y2="210.1"/><polygon class="g" points="72.64 219.88 77.78 219.88 82.92 219.88 82.92 204.53 77.78 204.53 72.64 204.53 72.64 219.88"/><line class="g" x1="77.78" y1="204.53" x2="77.78" y2="219.88"/><line class="g" x1="82.92" y1="210.1" x2="72.64" y2="210.1"/><polygon class="g" points="60.27 243.76 65.4 243.76 70.54 243.76 70.54 228.42 65.4 228.42 60.27 228.42 60.27 243.76"/><line class="g" x1="65.4" y1="228.42" x2="65.4" y2="243.76"/><line class="g" x1="70.54" y1="233.99" x2="60.27" y2="233.99"/><polygon class="g" points="72.64 243.76 77.78 243.76 82.92 243.76 82.92 228.42 77.78 228.42 72.64 228.42 72.64 243.76"/><line class="g" x1="77.78" y1="228.42" x2="77.78" y2="243.76"/><line class="g" x1="82.92" y1="233.99" x2="72.64" y2="233.99"/><polyline class="m" points="24.38 247.41 90.82 247.41 90.82 277.33"/><path class="o" d="M83.63,277.33v-21.73H45.66v21.15h-7.07v-16.98s-12.66-6.76-20.43,.29v16.27"/><circle class="g" cx="58.43" cy="192.73" r="3.3"/><polyline class="m" points="25.94 210.1 57.6 170.37 91.37 208.08"/><polyline class="o" points="95.99 207.62 134.3 165.1 171.05 207.08"/><line class="o" x1="97.3" y1="241.73" x2="97.3" y2="277.33"/><polyline class="m" points="97.3 244.57 170.65 244.57 170.65 211.04"/><line class="o" x1="170.65" y1="244.57" x2="170.65" y2="278.76"/><polyline class="o" points="97.3 272.67 124.47 272.67 124.47 277.33 146.24 277.33 146.24 272.67 170.65 272.67"/><polyline class="o" points="101.81 272.67 101.81 250.9 121.98 250.9 121.98 272.67"/><polyline class="o" points="124.47 272.67 124.47 250.9 146.24 250.9 146.24 272.67"/><polyline class="o" points="148.23 272.67 148.23 250.9 166.58 250.9 166.58 272.67"/><polygon class="g" points="130.55 191.93 134.91 191.93 139.27 191.93 139.27 179.11 135.16 179.11 130.55 179.11 130.55 191.93"/><rect class="g" x="109.91" y="198.61" width="9.57" height="15.9"/><line class="g" x1="114.69" y1="198.61" x2="114.69" y2="214.5"/><line class="g" x1="109.91" y1="204.49" x2="119.48" y2="204.49"/><rect class="g" x="122.86" y="198.61" width="9.57" height="15.9"/><line class="g" x1="127.65" y1="198.61" x2="127.65" y2="214.5"/><line class="g" x1="122.86" y1="204.49" x2="132.44" y2="204.49"/><rect class="g" x="136.67" y="198.61" width="9.57" height="15.9"/><line class="g" x1="141.46" y1="198.61" x2="141.46" y2="214.5"/><line class="g" x1="136.67" y1="204.49" x2="146.24" y2="204.49"/><rect class="g" x="149.65" y="198.61" width="9.57" height="15.9"/><line class="g" x1="154.44" y1="198.61" x2="154.44" y2="214.5"/><line class="g" x1="149.65" y1="204.49" x2="159.22" y2="204.49"/><rect class="g" x="177.34" y="212.69" width="9.57" height="13.48"/><line class="g" x1="182.13" y1="212.69" x2="182.13" y2="226.18"/><line class="g" x1="177.34" y1="217.69" x2="186.91" y2="217.69"/><rect class="g" x="190.21" y="212.69" width="9.57" height="13.48"/><line class="g" x1="195" y1="212.69" x2="195" y2="226.18"/><line class="g" x1="190.21" y1="217.69" x2="199.78" y2="217.69"/><rect class="g" x="211.8" y="212.69" width="9.57" height="13.48"/><line class="g" x1="216.59" y1="212.69" x2="216.59" y2="226.18"/><line class="g" x1="211.8" y1="217.69" x2="221.37" y2="217.69"/><rect class="g" x="236.37" y="207.76" width="8.79" height="17.56"/><line class="g" x1="240.76" y1="207.76" x2="240.76" y2="225.32"/><line class="g" x1="236.37" y1="214.26" x2="245.16" y2="214.26"/><rect class="g" x="253.32" y="207.76" width="8.79" height="17.56"/><line class="g" x1="257.72" y1="207.76" x2="257.72" y2="225.32"/><line class="g" x1="253.32" y1="214.26" x2="262.11" y2="214.26"/><rect class="g" x="268.18" y="207.76" width="8.79" height="17.56"/><line class="g" x1="272.58" y1="207.76" x2="272.58" y2="225.32"/><line class="g" x1="268.18" y1="214.26" x2="276.97" y2="214.26"/><rect class="g" x="268.18" y="231.28" width="8.79" height="15.52"/><line class="g" x1="272.58" y1="231.28" x2="272.58" y2="246.8"/><line class="g" x1="268.18" y1="237.03" x2="276.97" y2="237.03"/><rect class="g" x="253.32" y="231.28" width="8.79" height="15.52"/><line class="g" x1="257.72" y1="231.28" x2="257.72" y2="246.8"/><line class="g" x1="253.32" y1="237.03" x2="262.11" y2="237.03"/><polygon class="g" points="243.82 246.8 235.03 246.8 235.03 242.83 235.03 231.28 243.82 231.28 243.82 246.8"/><line class="g" x1="239.43" y1="231.28" x2="239.43" y2="246.8"/><line class="g" x1="235.03" y1="237.03" x2="243.82" y2="237.03"/><rect class="g" x="211.8" y="233.32" width="9.57" height="13.48"/><line class="g" x1="216.59" y1="233.32" x2="216.59" y2="246.8"/><line class="g" x1="211.8" y1="238.31" x2="221.37" y2="238.31"/><rect class="g" x="190.21" y="233.32" width="9.57" height="13.48"/><line class="g" x1="195" y1="233.32" x2="195" y2="246.8"/><line class="g" x1="190.21" y1="238.31" x2="199.78" y2="238.31"/><rect class="g" x="177.34" y="233.32" width="9.57" height="13.48"/><line class="g" x1="182.13" y1="233.32" x2="182.13" y2="246.8"/><line class="g" x1="177.34" y1="238.31" x2="186.91" y2="238.31"/><rect class="g" x="109.91" y="224.17" width="9.57" height="15.9"/><line class="g" x1="114.69" y1="224.17" x2="114.69" y2="240.06"/><line class="g" x1="109.91" y1="230.05" x2="119.48" y2="230.05"/><rect class="g" x="122.86" y="224.17" width="9.57" height="15.9"/><line class="g" x1="127.65" y1="224.17" x2="127.65" y2="240.06"/><line class="g" x1="122.86" y1="230.05" x2="132.44" y2="230.05"/><rect class="g" x="136.67" y="224.17" width="9.57" height="15.9"/><line class="g" x1="141.46" y1="224.17" x2="141.46" y2="240.06"/><line class="g" x1="136.67" y1="230.05" x2="146.24" y2="230.05"/><rect class="g" x="149.65" y="224.17" width="9.57" height="15.9"/><line class="g" x1="154.44" y1="224.17" x2="154.44" y2="240.06"/><line class="g" x1="149.65" y1="230.05" x2="159.22" y2="230.05"/><line class="g" x1="135.16" y1="179.11" x2="135.16" y2="191.93"/><line class="g" x1="130.55" y1="184.34" x2="139.27" y2="184.34"/><line class="g" x1="58.43" y1="189.43" x2="58.43" y2="196.03"/><line class="g" x1="55.13" y1="192.73" x2="61.74" y2="192.73"/><circle class="g" cx="199.78" cy="198.61" r="3.3"/><line class="g" x1="199.78" y1="195.31" x2="199.78" y2="201.91"/><line class="g" x1="196.48" y1="198.61" x2="203.08" y2="198.61"/><polyline class="m" points="174.56 278.76 174.56 257.87 194.28 257.87 194.28 278.76"/><polyline class="o" points="198.67 278.76 198.67 257.87 224.34 257.87 224.34 278.76"/><line class="o" x1="228" y1="211.04" x2="228" y2="278.76"/><line class="o" x1="215.18" y1="257.87" x2="215.18" y2="278.76"/><polyline class="m" points="170.65 214.5 198.59 178.72 228 214.5 258.13 179.52 287.43 212.06"/><polyline class="o" points="287.43 208.32 287.43 217.69 287.43 278.1"/><line class="g" x1="243.82" y1="243.21" x2="235.03" y2="243.21"/><line class="g" x1="253.32" y1="242.42" x2="262.11" y2="242.42"/><line class="g" x1="268.18" y1="243.21" x2="276.97" y2="243.21"/><polyline class="i" points="230.73 278.1 230.73 255.93 241.37 255.93 241.37 278.76"/><polyline class="m" points="243.82 278.76 243.82 256.65 278.33 256.65 278.33 278.76"/><path class="g" d="M255.15,199.69h2.78v-6.76s-.21-1.04-1.35-1.04-1.43,1.01-1.43,1.01v6.79Z"/><path class="o" d="M290.43,278.1v-22.71s1.74-5.4,9.26-5.4,8.49,5.01,8.49,5.01v23.1h14.46v-27.34h18.71v27.34"/><path class="o" d="M326.11,278.76v-17.59s.77-5.59,6.17-5.59,5.98,5.59,5.98,5.59v16.93"/><polyline class="o" points="287.43 240.85 312.76 240.85 312.76 278.1"/><rect class="o" x="329.63" y="200.54" width="9.65" height="15.57"/><polyline class="o" points="339.28 205.3 329.63 205.3 329.63 211.04 339.28 211.04"/><line class="o" x1="334.46" y1="200.54" x2="334.46" y2="216.11"/><rect class="o" x="303.11" y="200.54" width="9.65" height="15.57"/><polyline class="o" points="312.76 205.3 303.11 205.3 303.11 211.04 312.76 211.04"/><line class="o" x1="307.93" y1="200.54" x2="307.93" y2="216.11"/><rect class="o" x="303.11" y="225.26" width="9.65" height="15.57"/><polyline class="o" points="312.76 230.03 303.11 230.03 303.11 235.76 312.76 235.76"/><line class="o" x1="307.93" y1="225.26" x2="307.93" y2="240.84"/><rect class="o" x="329.63" y="225.26" width="9.65" height="15.57"/><polyline class="o" points="339.28 230.03 329.63 230.03 329.63 235.76 339.28 235.76"/><line class="o" x1="334.46" y1="225.26" x2="334.46" y2="240.84"/><rect class="o" x="344.33" y="225.26" width="9.65" height="15.57"/><polyline class="o" points="353.98 230.03 344.33 230.03 344.33 235.76 353.98 235.76"/><line class="o" x1="349.15" y1="225.26" x2="349.15" y2="240.84"/><rect class="o" x="344.33" y="200.97" width="9.65" height="15.57"/><polyline class="o" points="353.98 205.73 344.33 205.73 344.33 211.47 353.98 211.47"/><line class="o" x1="349.15" y1="200.97" x2="349.15" y2="216.54"/><circle class="o" cx="327.58" cy="178.55" r="6.64"/><rect class="o" x="316.2" y="176.7" width="3.01" height="9.38"/><rect class="o" x="336.73" y="176.7" width="3.01" height="9.38"/><rect class="d" x="326.93" y="173.42" width="1.3" height="1.3" rx=".25" ry=".25"/><rect class="d" x="329.24" y="174.07" width="1.3" height="1.3" rx=".25" ry=".25"/><rect class="d" x="330.94" y="175.7" width="1.3" height="1.3" rx=".25" ry=".25"/><rect class="d" x="331.59" y="177.9" width="1.3" height="1.3" rx=".25" ry=".25"/><rect class="d" x="327.05" y="173.42" width="1.3" height="1.3" rx=".25" ry=".25" transform="translate(655.4 348.14) rotate(-180)"/><rect class="d" x="324.74" y="174.07" width="1.3" height="1.3" rx=".25" ry=".25" transform="translate(650.79 349.44) rotate(-180)"/><rect class="d" x="323.04" y="175.7" width="1.3" height="1.3" rx=".25" ry=".25" transform="translate(647.39 352.7) rotate(-180)"/><rect class="d" x="322.39" y="177.9" width="1.3" height="1.3" rx=".25" ry=".25" transform="translate(646.09 357.09) rotate(-180)"/><rect class="d" x="327.07" y="182.37" width="1.3" height="1.3" rx=".25" ry=".25" transform="translate(655.44 366.05) rotate(180)"/><rect class="d" x="324.76" y="181.72" width="1.3" height="1.3" rx=".25" ry=".25" transform="translate(650.83 364.74) rotate(180)"/><rect class="d" x="323.06" y="180.09" width="1.3" height="1.3" rx=".25" ry=".25" transform="translate(647.43 361.48) rotate(180)"/><rect class="d" x="327.07" y="182.37" width="1.3" height="1.3" rx=".25" ry=".25"/><rect class="d" x="329.38" y="181.72" width="1.3" height="1.3" rx=".25" ry=".25"/><rect class="d" x="331.08" y="180.09" width="1.3" height="1.3" rx=".25" ry=".25"/><rect class="d" x="326.7" y="177.9" width="2" height="1.3" rx=".25" ry=".25" transform="translate(655.4 357.09) rotate(180)"/><polyline class="o" points="287.43 200.94 330.54 153.74 363.76 202.15"/><path class="n" d="M0,126.84H15.73v-16.7s1.75-4.66,8.55-4.66c.29-.29,0-12.43,0-12.43h3.69v-27.97l-3.88-7.38L57.87,15.75l35.35,39.62-2.91,6.02v31.46h6.99V60.81l-2.33-3.69v-3.11L134.2,10.7l38.07,43.31-1.62,5.09v3.07l28.03-36.9,29.33,36.9,30.1-35.54,29.33,32.82v-7.38l-1.75-2.33L330.55,.8l33.21,47.78v81.31h29.23"/><polygon class="f" points="35.39 71 40.53 71 45.66 71 45.66 55.66 40.53 55.66 35.39 55.66 35.39 71"/><line class="f" x1="40.53" y1="55.66" x2="40.53" y2="71"/><line class="f" x1="45.66" y1="61.22" x2="35.39" y2="61.22"/><polygon class="f" points="35.39 95.63 40.53 95.63 45.66 95.63 45.66 80.29 40.53 80.29 35.39 80.29 35.39 95.63"/><line class="f" x1="40.53" y1="80.29" x2="40.53" y2="95.63"/><line class="f" x1="45.66" y1="85.85" x2="35.39" y2="85.85"/><polygon class="f" points="60.27 71 65.4 71 70.54 71 70.54 55.66 65.4 55.66 60.27 55.66 60.27 71"/><line class="f" x1="65.4" y1="55.66" x2="65.4" y2="71"/><line class="f" x1="70.54" y1="61.22" x2="60.27" y2="61.22"/><polygon class="f" points="72.64 71 77.78 71 82.92 71 82.92 55.66 77.78 55.66 72.64 55.66 72.64 71"/><line class="f" x1="77.78" y1="55.66" x2="77.78" y2="71"/><line class="f" x1="82.92" y1="61.22" x2="72.64" y2="61.22"/><polygon class="f" points="60.27 94.89 65.4 94.89 70.54 94.89 70.54 79.54 65.4 79.54 60.27 79.54 60.27 94.89"/><line class="f" x1="65.4" y1="79.54" x2="65.4" y2="94.89"/><line class="f" x1="70.54" y1="85.11" x2="60.27" y2="85.11"/><polygon class="f" points="72.64 94.89 77.78 94.89 82.92 94.89 82.92 79.54 77.78 79.54 72.64 79.54 72.64 94.89"/><line class="f" x1="77.78" y1="79.54" x2="77.78" y2="94.89"/><line class="f" x1="82.92" y1="85.11" x2="72.64" y2="85.11"/><polyline class="l" points="24.38 98.53 90.82 98.53 90.82 128.46"/><path class="n" d="M83.63,128.46v-21.73H45.66v21.15h-7.07v-16.98s-12.66-6.76-20.43,.29v16.27"/><circle class="f" cx="58.43" cy="43.86" r="3.3"/><polyline class="l" points="25.94 61.22 57.6 21.49 91.37 59.21"/><polyline class="n" points="95.99 58.74 134.3 16.22 171.05 58.2"/><line class="n" x1="97.3" y1="92.85" x2="97.3" y2="128.46"/><polyline class="l" points="97.3 95.7 170.65 95.7 170.65 62.17"/><line class="n" x1="170.65" y1="95.7" x2="170.65" y2="129.88"/><polyline class="n" points="97.3 123.79 124.47 123.79 124.47 128.46 146.24 128.46 146.24 123.79 170.65 123.79"/><polyline class="n" points="101.81 123.79 101.81 102.03 121.98 102.03 121.98 123.79"/><polyline class="n" points="124.47 123.79 124.47 102.03 146.24 102.03 146.24 123.79"/><polyline class="n" points="148.23 123.79 148.23 102.03 166.58 102.03 166.58 123.79"/><polygon class="f" points="130.55 43.06 134.91 43.06 139.27 43.06 139.27 30.24 135.16 30.24 130.55 30.24 130.55 43.06"/><rect class="f" x="109.91" y="49.73" width="9.57" height="15.9"/><line class="f" x1="114.69" y1="49.73" x2="114.69" y2="65.63"/><line class="f" x1="109.91" y1="55.62" x2="119.48" y2="55.62"/><rect class="f" x="122.86" y="49.73" width="9.57" height="15.9"/><line class="f" x1="127.65" y1="49.73" x2="127.65" y2="65.63"/><line class="f" x1="122.86" y1="55.62" x2="132.44" y2="55.62"/><rect class="f" x="136.67" y="49.73" width="9.57" height="15.9"/><line class="f" x1="141.46" y1="49.73" x2="141.46" y2="65.63"/><line class="f" x1="136.67" y1="55.62" x2="146.24" y2="55.62"/><rect class="f" x="149.65" y="49.73" width="9.57" height="15.9"/><line class="f" x1="154.44" y1="49.73" x2="154.44" y2="65.63"/><line class="f" x1="149.65" y1="55.62" x2="159.22" y2="55.62"/><rect class="f" x="177.34" y="63.82" width="9.57" height="13.48"/><line class="f" x1="182.13" y1="63.82" x2="182.13" y2="77.3"/><line class="f" x1="177.34" y1="68.81" x2="186.91" y2="68.81"/><rect class="f" x="190.21" y="63.82" width="9.57" height="13.48"/><line class="f" x1="195" y1="63.82" x2="195" y2="77.3"/><line class="f" x1="190.21" y1="68.81" x2="199.78" y2="68.81"/><rect class="f" x="211.8" y="63.82" width="9.57" height="13.48"/><line class="f" x1="216.59" y1="63.82" x2="216.59" y2="77.3"/><line class="f" x1="211.8" y1="68.81" x2="221.37" y2="68.81"/><rect class="f" x="236.37" y="58.89" width="8.79" height="17.56"/><line class="f" x1="240.76" y1="58.89" x2="240.76" y2="76.45"/><line class="f" x1="236.37" y1="65.39" x2="245.16" y2="65.39"/><rect class="f" x="253.32" y="58.89" width="8.79" height="17.56"/><line class="f" x1="257.72" y1="58.89" x2="257.72" y2="76.45"/><line class="f" x1="253.32" y1="65.39" x2="262.11" y2="65.39"/><rect class="f" x="268.18" y="58.89" width="8.79" height="17.56"/><line class="f" x1="272.58" y1="58.89" x2="272.58" y2="76.45"/><line class="f" x1="268.18" y1="65.39" x2="276.97" y2="65.39"/><rect class="f" x="268.18" y="82.41" width="8.79" height="15.52"/><line class="f" x1="272.58" y1="82.41" x2="272.58" y2="97.93"/><line class="f" x1="268.18" y1="88.15" x2="276.97" y2="88.15"/><rect class="f" x="253.32" y="82.41" width="8.79" height="15.52"/><line class="f" x1="257.72" y1="82.41" x2="257.72" y2="97.93"/><line class="f" x1="253.32" y1="88.15" x2="262.11" y2="88.15"/><polygon class="f" points="243.82 97.93 235.03 97.93 235.03 93.95 235.03 82.41 243.82 82.41 243.82 97.93"/><line class="f" x1="239.43" y1="82.41" x2="239.43" y2="97.93"/><line class="f" x1="235.03" y1="88.15" x2="243.82" y2="88.15"/><rect class="f" x="211.8" y="84.45" width="9.57" height="13.48"/><line class="f" x1="216.59" y1="84.45" x2="216.59" y2="97.93"/><line class="f" x1="211.8" y1="89.44" x2="221.37" y2="89.44"/><rect class="f" x="190.21" y="84.45" width="9.57" height="13.48"/><line class="f" x1="195" y1="84.45" x2="195" y2="97.93"/><line class="f" x1="190.21" y1="89.44" x2="199.78" y2="89.44"/><rect class="f" x="177.34" y="84.45" width="9.57" height="13.48"/><line class="f" x1="182.13" y1="84.45" x2="182.13" y2="97.93"/><line class="f" x1="177.34" y1="89.44" x2="186.91" y2="89.44"/><rect class="f" x="109.91" y="75.29" width="9.57" height="15.9"/><line class="f" x1="114.69" y1="75.29" x2="114.69" y2="91.19"/><line class="f" x1="109.91" y1="81.18" x2="119.48" y2="81.18"/><rect class="f" x="122.86" y="75.29" width="9.57" height="15.9"/><line class="f" x1="127.65" y1="75.29" x2="127.65" y2="91.19"/><line class="f" x1="122.86" y1="81.18" x2="132.44" y2="81.18"/><rect class="f" x="136.67" y="75.29" width="9.57" height="15.9"/><line class="f" x1="141.46" y1="75.29" x2="141.46" y2="91.19"/><line class="f" x1="136.67" y1="81.18" x2="146.24" y2="81.18"/><rect class="f" x="149.65" y="75.29" width="9.57" height="15.9"/><line class="f" x1="154.44" y1="75.29" x2="154.44" y2="91.19"/><line class="f" x1="149.65" y1="81.18" x2="159.22" y2="81.18"/><line class="f" x1="135.16" y1="30.24" x2="135.16" y2="43.06"/><line class="f" x1="130.55" y1="35.47" x2="139.27" y2="35.47"/><line class="f" x1="58.43" y1="40.56" x2="58.43" y2="47.16"/><line class="f" x1="55.13" y1="43.86" x2="61.74" y2="43.86"/><circle class="f" cx="199.78" cy="49.73" r="3.3"/><line class="f" x1="199.78" y1="46.43" x2="199.78" y2="53.04"/><line class="f" x1="196.48" y1="49.73" x2="203.08" y2="49.73"/><polyline class="l" points="174.56 129.88 174.56 108.99 194.28 108.99 194.28 129.88"/><polyline class="n" points="198.67 129.88 198.67 108.99 224.34 108.99 224.34 129.88"/><line class="n" x1="228" y1="62.17" x2="228" y2="129.88"/><line class="n" x1="215.18" y1="108.99" x2="215.18" y2="129.88"/><polyline class="l" points="170.65 65.63 198.59 29.84 228 65.63 258.13 30.65 287.43 63.19"/><polyline class="n" points="287.43 59.45 287.43 68.81 287.43 129.22"/><line class="f" x1="243.82" y1="94.34" x2="235.03" y2="94.34"/><line class="f" x1="253.32" y1="93.54" x2="262.11" y2="93.54"/><line class="f" x1="268.18" y1="94.34" x2="276.97" y2="94.34"/><polyline class="j" points="230.73 129.22 230.73 107.06 241.37 107.06 241.37 129.88"/><polyline class="l" points="243.82 129.88 243.82 107.77 278.33 107.77 278.33 129.88"/><path class="f" d="M255.15,50.81h2.78v-6.76s-.21-1.04-1.35-1.04-1.43,1.01-1.43,1.01v6.79Z"/><path class="n" d="M290.43,129.22v-22.71s1.74-5.4,9.26-5.4,8.49,5.01,8.49,5.01v23.1h14.46v-27.34h18.71v27.34"/><path class="n" d="M326.11,129.88v-17.59s.77-5.59,6.17-5.59,5.98,5.59,5.98,5.59v16.93"/><polyline class="n" points="287.43 91.97 312.76 91.97 312.76 129.22"/><rect class="n" x="329.63" y="51.66" width="9.65" height="15.57"/><polyline class="n" points="339.28 56.43 329.63 56.43 329.63 62.16 339.28 62.16"/><line class="n" x1="334.46" y1="51.66" x2="334.46" y2="67.24"/><rect class="n" x="303.11" y="51.66" width="9.65" height="15.57"/><polyline class="n" points="312.76 56.43 303.11 56.43 303.11 62.16 312.76 62.16"/><line class="n" x1="307.93" y1="51.66" x2="307.93" y2="67.24"/><rect class="n" x="303.11" y="76.39" width="9.65" height="15.57"/><polyline class="n" points="312.76 81.15 303.11 81.15 303.11 86.89 312.76 86.89"/><line class="n" x1="307.93" y1="76.39" x2="307.93" y2="91.96"/><rect class="n" x="329.63" y="76.39" width="9.65" height="15.57"/><polyline class="n" points="339.28 81.15 329.63 81.15 329.63 86.89 339.28 86.89"/><line class="n" x1="334.46" y1="76.39" x2="334.46" y2="91.96"/><rect class="n" x="344.33" y="76.39" width="9.65" height="15.57"/><polyline class="n" points="353.98 81.15 344.33 81.15 344.33 86.89 353.98 86.89"/><line class="n" x1="349.15" y1="76.39" x2="349.15" y2="91.96"/><rect class="n" x="344.33" y="52.09" width="9.65" height="15.57"/><polyline class="n" points="353.98 56.86 344.33 56.86 344.33 62.59 353.98 62.59"/><line class="n" x1="349.15" y1="52.09" x2="349.15" y2="67.67"/><circle class="n" cx="327.58" cy="29.67" r="6.64"/><rect class="n" x="316.2" y="27.83" width="3.01" height="9.38"/><rect class="n" x="336.73" y="27.83" width="3.01" height="9.38"/><rect class="b" x="326.93" y="24.54" width="1.3" height="1.3" rx=".25" ry=".25"/><rect class="b" x="329.24" y="25.19" width="1.3" height="1.3" rx=".25" ry=".25"/><rect class="b" x="330.94" y="26.83" width="1.3" height="1.3" rx=".25" ry=".25"/><rect class="b" x="331.59" y="29.02" width="1.3" height="1.3" rx=".25" ry=".25"/><rect class="b" x="327.05" y="24.54" width="1.3" height="1.3" rx=".25" ry=".25" transform="translate(655.4 50.39) rotate(-180)"/><rect class="b" x="324.74" y="25.19" width="1.3" height="1.3" rx=".25" ry=".25" transform="translate(650.79 51.69) rotate(-180)"/><rect class="b" x="323.04" y="26.83" width="1.3" height="1.3" rx=".25" ry=".25" transform="translate(647.39 54.95) rotate(-180)"/><rect class="b" x="322.39" y="29.02" width="1.3" height="1.3" rx=".25" ry=".25" transform="translate(646.09 59.34) rotate(-180)"/><rect class="b" x="327.07" y="33.5" width="1.3" height="1.3" rx=".25" ry=".25" transform="translate(655.44 68.3) rotate(180)"/><rect class="b" x="324.76" y="32.85" width="1.3" height="1.3" rx=".25" ry=".25" transform="translate(650.83 67) rotate(180)"/><rect class="b" x="323.06" y="31.22" width="1.3" height="1.3" rx=".25" ry=".25" transform="translate(647.43 63.73) rotate(180)"/><rect class="b" x="327.07" y="33.5" width="1.3" height="1.3" rx=".25" ry=".25"/><rect class="b" x="329.38" y="32.85" width="1.3" height="1.3" rx=".25" ry=".25"/><rect class="b" x="331.08" y="31.22" width="1.3" height="1.3" rx=".25" ry=".25"/><rect class="b" x="326.7" y="29.02" width="2" height="1.3" rx=".25" ry=".25" transform="translate(655.4 59.34) rotate(180)"/><polyline class="n" points="287.43 52.07 330.54 4.87 363.76 53.27"/></svg>