<?xml version="1.0" encoding="utf-8"?>
<!-- Generator: Adobe Illustrator 26.2.1, SVG Export Plug-In . SVG Version: 6.00 Build 0)  -->
<svg version="1.1" id="Layer_2" xmlns="http://www.w3.org/2000/svg" xmlns:xlink="http://www.w3.org/1999/xlink" x="0px" y="0px"
	 viewBox="0 0 393 130.4" style="enable-background:new 0 0 393 130.4;" xml:space="preserve">
<style type="text/css">
	.st0{fill:none;stroke:#F2F2F3;stroke-miterlimit:10;}
	.st1{fill:none;stroke:#F2F2F3;stroke-width:0.75;stroke-miterlimit:10;}
	.st2{fill:none;stroke:#F2F2F3;stroke-width:2;stroke-miterlimit:10;}
	.st3{fill:none;stroke:#F2F2F3;stroke-width:1.0282;stroke-miterlimit:10;}
	.st4{stroke:#F2F2F3;stroke-miterlimit:10;}
	.st5{fill:none;stroke:#3A2212;stroke-miterlimit:10;}
	.st6{fill:none;stroke:#3A2212;stroke-width:0.75;stroke-miterlimit:10;}
	.st7{fill:none;stroke:#3A2212;stroke-width:2;stroke-miterlimit:10;}
	.st8{fill:none;stroke:#3A2212;stroke-width:1.0282;stroke-miterlimit:10;}
	.st9{stroke:#3A2212;stroke-miterlimit:10;}
	.st10{fill:none;stroke:#000000;stroke-miterlimit:10;}
	.st11{fill:none;stroke:#000000;stroke-width:0.75;stroke-miterlimit:10;}
	.st12{fill:none;stroke:#000000;stroke-width:2;stroke-miterlimit:10;}
	.st13{fill:none;stroke:#000000;stroke-width:1.0282;stroke-miterlimit:10;}
</style>
<path class="st0" d="M0,269.6h15.7v-16.7c0,0,1.7-4.7,8.5-4.7c0.3-0.3,0-12.4,0-12.4H28v-1.9v-26l-3.9-7.4l33.8-41.9l35.3,39.6
	l-2.9,6v31.5h7v-32l-2.3-3.7v-3.1l39.2-43.3l38.1,43.3l-1.6,5.1v3.1l28-36.9l29.3,36.9l30.1-35.5l29.3,32.8v-7.4l-1.7-2.3l44.9-48.9
	l33.2,47.8v81.3H393"/>
<polygon class="st1" points="35.4,213.8 40.5,213.8 45.7,213.8 45.7,198.4 40.5,198.4 35.4,198.4 "/>
<line class="st1" x1="40.5" y1="198.4" x2="40.5" y2="213.8"/>
<line class="st1" x1="45.7" y1="204" x2="35.4" y2="204"/>
<polygon class="st1" points="35.4,238.4 40.5,238.4 45.7,238.4 45.7,223.1 40.5,223.1 35.4,223.1 "/>
<line class="st1" x1="40.5" y1="223.1" x2="40.5" y2="238.4"/>
<line class="st1" x1="45.7" y1="228.6" x2="35.4" y2="228.6"/>
<polygon class="st1" points="60.3,213.8 65.4,213.8 70.5,213.8 70.5,198.4 65.4,198.4 60.3,198.4 "/>
<line class="st1" x1="65.4" y1="198.4" x2="65.4" y2="213.8"/>
<line class="st1" x1="70.5" y1="204" x2="60.3" y2="204"/>
<polygon class="st1" points="72.6,213.8 77.8,213.8 82.9,213.8 82.9,198.4 77.8,198.4 72.6,198.4 "/>
<line class="st1" x1="77.8" y1="198.4" x2="77.8" y2="213.8"/>
<line class="st1" x1="82.9" y1="204" x2="72.6" y2="204"/>
<polygon class="st1" points="60.3,237.7 65.4,237.7 70.5,237.7 70.5,222.3 65.4,222.3 60.3,222.3 "/>
<line class="st1" x1="65.4" y1="222.3" x2="65.4" y2="237.7"/>
<line class="st1" x1="70.5" y1="227.9" x2="60.3" y2="227.9"/>
<polygon class="st1" points="72.6,237.7 77.8,237.7 82.9,237.7 82.9,222.3 77.8,222.3 72.6,222.3 "/>
<line class="st1" x1="77.8" y1="222.3" x2="77.8" y2="237.7"/>
<line class="st1" x1="82.9" y1="227.9" x2="72.6" y2="227.9"/>
<polyline class="st2" points="24.4,241.3 90.8,241.3 90.8,271.2 "/>
<path class="st0" d="M83.6,271.2v-21.7h-38v21.2h-7.1v-17c0,0-12.7-6.8-20.4,0.3v16.3"/>
<circle class="st1" cx="58.4" cy="186.6" r="3.3"/>
<polyline class="st2" points="25.9,204 57.6,164.3 91.4,202 "/>
<polyline class="st0" points="96,201.5 134.3,159 171.1,201 "/>
<path class="st0" d="M97.8,271.2"/>
<line class="st0" x1="97.3" y1="235.6" x2="97.3" y2="271.2"/>
<polyline class="st2" points="97.3,238.5 170.6,238.5 170.6,204.9 "/>
<line class="st0" x1="170.6" y1="238.5" x2="170.6" y2="272.7"/>
<polyline class="st0" points="97.3,266.6 124.5,266.6 124.5,271.2 146.2,271.2 146.2,266.6 170.6,266.6 "/>
<polyline class="st0" points="101.8,266.6 101.8,244.8 122,244.8 122,266.6 "/>
<polyline class="st0" points="124.5,266.6 124.5,244.8 146.2,244.8 146.2,266.6 "/>
<polyline class="st0" points="148.2,266.6 148.2,244.8 166.6,244.8 166.6,266.6 "/>
<polygon class="st1" points="130.5,185.8 134.9,185.8 139.3,185.8 139.3,173 135.2,173 130.5,173 "/>
<rect x="109.9" y="192.5" class="st1" width="9.6" height="15.9"/>
<line class="st1" x1="114.7" y1="192.5" x2="114.7" y2="208.4"/>
<line class="st1" x1="109.9" y1="198.4" x2="119.5" y2="198.4"/>
<rect x="122.9" y="192.5" class="st1" width="9.6" height="15.9"/>
<line class="st1" x1="127.6" y1="192.5" x2="127.6" y2="208.4"/>
<line class="st1" x1="122.9" y1="198.4" x2="132.4" y2="198.4"/>
<rect x="136.7" y="192.5" class="st1" width="9.6" height="15.9"/>
<line class="st1" x1="141.5" y1="192.5" x2="141.5" y2="208.4"/>
<line class="st1" x1="136.7" y1="198.4" x2="146.2" y2="198.4"/>
<rect x="149.6" y="192.5" class="st1" width="9.6" height="15.9"/>
<line class="st1" x1="154.4" y1="192.5" x2="154.4" y2="208.4"/>
<line class="st1" x1="149.6" y1="198.4" x2="159.2" y2="198.4"/>
<rect x="177.3" y="206.6" class="st1" width="9.6" height="13.5"/>
<line class="st1" x1="182.1" y1="206.6" x2="182.1" y2="220.1"/>
<line class="st1" x1="177.3" y1="211.6" x2="186.9" y2="211.6"/>
<rect x="190.2" y="206.6" class="st1" width="9.6" height="13.5"/>
<line class="st1" x1="195" y1="206.6" x2="195" y2="220.1"/>
<line class="st1" x1="190.2" y1="211.6" x2="199.8" y2="211.6"/>
<rect x="211.8" y="206.6" class="st1" width="9.6" height="13.5"/>
<line class="st1" x1="216.6" y1="206.6" x2="216.6" y2="220.1"/>
<line class="st1" x1="211.8" y1="211.6" x2="221.4" y2="211.6"/>
<rect x="236.4" y="201.7" class="st1" width="8.8" height="17.6"/>
<line class="st1" x1="240.8" y1="201.7" x2="240.8" y2="219.2"/>
<line class="st1" x1="236.4" y1="208.2" x2="245.2" y2="208.2"/>
<rect x="253.3" y="201.7" class="st1" width="8.8" height="17.6"/>
<line class="st1" x1="257.7" y1="201.7" x2="257.7" y2="219.2"/>
<line class="st1" x1="253.3" y1="208.2" x2="262.1" y2="208.2"/>
<rect x="268.2" y="201.7" class="st1" width="8.8" height="17.6"/>
<line class="st1" x1="272.6" y1="201.7" x2="272.6" y2="219.2"/>
<line class="st1" x1="268.2" y1="208.2" x2="277" y2="208.2"/>
<rect x="268.2" y="225.2" class="st1" width="8.8" height="15.5"/>
<line class="st1" x1="272.6" y1="225.2" x2="272.6" y2="240.7"/>
<line class="st1" x1="268.2" y1="230.9" x2="277" y2="230.9"/>
<rect x="253.3" y="225.2" class="st1" width="8.8" height="15.5"/>
<line class="st1" x1="257.7" y1="225.2" x2="257.7" y2="240.7"/>
<line class="st1" x1="253.3" y1="230.9" x2="262.1" y2="230.9"/>
<polygon class="st1" points="243.8,240.7 235,240.7 235,236.7 235,225.2 243.8,225.2 "/>
<line class="st1" x1="239.4" y1="225.2" x2="239.4" y2="240.7"/>
<line class="st1" x1="235" y1="230.9" x2="243.8" y2="230.9"/>
<rect x="211.8" y="227.2" class="st1" width="9.6" height="13.5"/>
<line class="st1" x1="216.6" y1="227.2" x2="216.6" y2="240.7"/>
<line class="st1" x1="211.8" y1="232.2" x2="221.4" y2="232.2"/>
<rect x="190.2" y="227.2" class="st1" width="9.6" height="13.5"/>
<line class="st1" x1="195" y1="227.2" x2="195" y2="240.7"/>
<line class="st1" x1="190.2" y1="232.2" x2="199.8" y2="232.2"/>
<rect x="177.3" y="227.2" class="st1" width="9.6" height="13.5"/>
<line class="st1" x1="182.1" y1="227.2" x2="182.1" y2="240.7"/>
<line class="st1" x1="177.3" y1="232.2" x2="186.9" y2="232.2"/>
<rect x="109.9" y="218.1" class="st1" width="9.6" height="15.9"/>
<line class="st1" x1="114.7" y1="218.1" x2="114.7" y2="234"/>
<line class="st1" x1="109.9" y1="223.9" x2="119.5" y2="223.9"/>
<rect x="122.9" y="218.1" class="st1" width="9.6" height="15.9"/>
<line class="st1" x1="127.6" y1="218.1" x2="127.6" y2="234"/>
<line class="st1" x1="122.9" y1="223.9" x2="132.4" y2="223.9"/>
<rect x="136.7" y="218.1" class="st1" width="9.6" height="15.9"/>
<line class="st1" x1="141.5" y1="218.1" x2="141.5" y2="234"/>
<line class="st1" x1="136.7" y1="223.9" x2="146.2" y2="223.9"/>
<rect x="149.6" y="218.1" class="st1" width="9.6" height="15.9"/>
<line class="st1" x1="154.4" y1="218.1" x2="154.4" y2="234"/>
<line class="st1" x1="149.6" y1="223.9" x2="159.2" y2="223.9"/>
<line class="st1" x1="135.2" y1="173" x2="135.2" y2="185.8"/>
<line class="st1" x1="130.5" y1="178.2" x2="139.3" y2="178.2"/>
<line class="st1" x1="58.4" y1="183.3" x2="58.4" y2="189.9"/>
<line class="st1" x1="55.1" y1="186.6" x2="61.7" y2="186.6"/>
<circle class="st1" cx="199.8" cy="192.5" r="3.3"/>
<line class="st1" x1="199.8" y1="189.2" x2="199.8" y2="195.8"/>
<line class="st1" x1="196.5" y1="192.5" x2="203.1" y2="192.5"/>
<polyline class="st2" points="174.6,272.7 174.6,251.8 194.3,251.8 194.3,272.7 "/>
<polyline class="st0" points="198.7,272.7 198.7,251.8 224.3,251.8 224.3,272.7 "/>
<line class="st0" x1="228" y1="204.9" x2="228" y2="272.7"/>
<line class="st0" x1="215.2" y1="251.8" x2="215.2" y2="272.7"/>
<polyline class="st2" points="170.6,208.4 198.6,172.6 228,208.4 258.1,173.4 287.4,206 "/>
<polyline class="st0" points="287.4,202.2 287.4,211.6 287.4,272 "/>
<line class="st1" x1="243.8" y1="237.1" x2="235" y2="237.1"/>
<line class="st1" x1="253.3" y1="236.3" x2="262.1" y2="236.3"/>
<line class="st1" x1="268.2" y1="237.1" x2="277" y2="237.1"/>
<polyline class="st3" points="230.7,272 230.7,249.8 241.4,249.8 241.4,272.7 "/>
<polyline class="st2" points="243.8,272.7 243.8,250.5 278.3,250.5 278.3,272.7 "/>
<path class="st1" d="M255.2,193.6h2.8v-6.8c0,0-0.2-1-1.3-1c-1.1,0-1.4,1-1.4,1V193.6z"/>
<path class="st0" d="M290.4,272v-22.7c0,0,1.7-5.4,9.3-5.4c7.5,0,8.5,5,8.5,5V272h14.5v-27.3h18.7V272"/>
<path class="st0" d="M326.1,272.7v-17.6c0,0,0.8-5.6,6.2-5.6s6,5.6,6,5.6V272"/>
<polyline class="st0" points="287.4,234.7 312.8,234.7 312.8,272 "/>
<rect x="329.6" y="194.4" class="st0" width="9.6" height="15.6"/>
<polyline class="st0" points="339.3,199.2 329.6,199.2 329.6,204.9 339.3,204.9 "/>
<line class="st0" x1="334.5" y1="194.4" x2="334.5" y2="210"/>
<rect x="303.1" y="194.4" class="st0" width="9.6" height="15.6"/>
<polyline class="st0" points="312.8,199.2 303.1,199.2 303.1,204.9 312.8,204.9 "/>
<line class="st0" x1="307.9" y1="194.4" x2="307.9" y2="210"/>
<rect x="303.1" y="219.2" class="st0" width="9.6" height="15.6"/>
<polyline class="st0" points="312.8,223.9 303.1,223.9 303.1,229.7 312.8,229.7 "/>
<line class="st0" x1="307.9" y1="219.2" x2="307.9" y2="234.7"/>
<rect x="329.6" y="219.2" class="st0" width="9.6" height="15.6"/>
<polyline class="st0" points="339.3,223.9 329.6,223.9 329.6,229.7 339.3,229.7 "/>
<line class="st0" x1="334.5" y1="219.2" x2="334.5" y2="234.7"/>
<rect x="344.3" y="219.2" class="st0" width="9.6" height="15.6"/>
<polyline class="st0" points="354,223.9 344.3,223.9 344.3,229.7 354,229.7 "/>
<line class="st0" x1="349.2" y1="219.2" x2="349.2" y2="234.7"/>
<rect x="344.3" y="194.9" class="st0" width="9.6" height="15.6"/>
<polyline class="st0" points="354,199.6 344.3,199.6 344.3,205.4 354,205.4 "/>
<line class="st0" x1="349.2" y1="194.9" x2="349.2" y2="210.4"/>
<circle class="st0" cx="327.6" cy="172.4" r="6.6"/>
<rect x="316.2" y="170.6" class="st0" width="3" height="9.4"/>
<rect x="336.7" y="170.6" class="st0" width="3" height="9.4"/>
<path class="st4" d="M328,167.3h-0.8c-0.1,0-0.2,0.1-0.2,0.2v0.8c0,0.1,0.1,0.2,0.2,0.2h0.8c0.1,0,0.2-0.1,0.2-0.2v-0.8
	C328.2,167.4,328.1,167.3,328,167.3z"/>
<path class="st4" d="M330.3,168h-0.8c-0.1,0-0.2,0.1-0.2,0.2v0.8c0,0.1,0.1,0.2,0.2,0.2h0.8c0.1,0,0.2-0.1,0.2-0.2v-0.8
	C330.5,168.1,330.4,168,330.3,168z"/>
<path class="st4" d="M332,169.6h-0.8c-0.1,0-0.2,0.1-0.2,0.2v0.8c0,0.1,0.1,0.2,0.2,0.2h0.8c0.1,0,0.2-0.1,0.2-0.2v-0.8
	C332.2,169.7,332.1,169.6,332,169.6z"/>
<path class="st4" d="M332.6,171.8h-0.8c-0.1,0-0.2,0.1-0.2,0.2v0.8c0,0.1,0.1,0.2,0.2,0.2h0.8c0.1,0,0.2-0.1,0.2-0.2V172
	C332.9,171.9,332.8,171.8,332.6,171.8z"/>
<path class="st4" d="M327.3,167.3h0.8c0.1,0,0.2,0.1,0.2,0.2v0.8c0,0.1-0.1,0.2-0.2,0.2h-0.8c-0.1,0-0.2-0.1-0.2-0.2v-0.8
	C327,167.4,327.2,167.3,327.3,167.3z"/>
<path class="st4" d="M325,168h0.8c0.1,0,0.2,0.1,0.2,0.2v0.8c0,0.1-0.1,0.2-0.2,0.2H325c-0.1,0-0.2-0.1-0.2-0.2v-0.8
	C324.7,168.1,324.9,168,325,168z"/>
<path class="st4" d="M323.3,169.6h0.8c0.1,0,0.2,0.1,0.2,0.2v0.8c0,0.1-0.1,0.2-0.2,0.2h-0.8c-0.1,0-0.2-0.1-0.2-0.2v-0.8
	C323,169.7,323.2,169.6,323.3,169.6z"/>
<path class="st4" d="M322.6,171.8h0.8c0.1,0,0.2,0.1,0.2,0.2v0.8c0,0.1-0.1,0.2-0.2,0.2h-0.8c-0.1,0-0.2-0.1-0.2-0.2V172
	C322.4,171.9,322.5,171.8,322.6,171.8z"/>
<path class="st4" d="M327.3,177.6h0.8c0.1,0,0.2-0.1,0.2-0.2v-0.8c0-0.1-0.1-0.2-0.2-0.2h-0.8c-0.1,0-0.2,0.1-0.2,0.2v0.8
	C327.1,177.5,327.2,177.6,327.3,177.6z"/>
<path class="st4" d="M325,176.9h0.8c0.1,0,0.2-0.1,0.2-0.2v-0.8c0-0.1-0.1-0.2-0.2-0.2H325c-0.1,0-0.2,0.1-0.2,0.2v0.8
	C324.8,176.8,324.9,176.9,325,176.9z"/>
<path class="st4" d="M323.3,175.3h0.8c0.1,0,0.2-0.1,0.2-0.2v-0.8c0-0.1-0.1-0.2-0.2-0.2h-0.8c-0.1,0-0.2,0.1-0.2,0.2v0.8
	C323.1,175.2,323.2,175.3,323.3,175.3z"/>
<path class="st4" d="M328.1,177.6h-0.8c-0.1,0-0.2-0.1-0.2-0.2v-0.8c0-0.1,0.1-0.2,0.2-0.2h0.8c0.1,0,0.2,0.1,0.2,0.2v0.8
	C328.4,177.5,328.3,177.6,328.1,177.6z"/>
<path class="st4" d="M330.4,176.9h-0.8c-0.1,0-0.2-0.1-0.2-0.2v-0.8c0-0.1,0.1-0.2,0.2-0.2h0.8c0.1,0,0.2,0.1,0.2,0.2v0.8
	C330.7,176.8,330.6,176.9,330.4,176.9z"/>
<path class="st4" d="M332.1,175.3h-0.8c-0.1,0-0.2-0.1-0.2-0.2v-0.8c0-0.1,0.1-0.2,0.2-0.2h0.8c0.1,0,0.2,0.1,0.2,0.2v0.8
	C332.4,175.2,332.3,175.3,332.1,175.3z"/>
<path class="st4" d="M326.9,173.1h1.5c0.1,0,0.2-0.1,0.2-0.2V172c0-0.1-0.1-0.2-0.2-0.2h-1.5c-0.1,0-0.2,0.1-0.2,0.2v0.8
	C326.7,173,326.8,173.1,326.9,173.1z"/>
<polyline class="st0" points="287.4,194.8 330.5,147.6 363.8,196 "/>
<path class="st5" d="M0,126.8h15.7v-16.7c0,0,1.7-4.7,8.5-4.7c0.3-0.3,0-12.4,0-12.4H28v-1.9v-26l-3.9-7.4l33.8-41.9l35.3,39.6
	l-2.9,6v31.5h7v-32L95,57.1V54l39.2-43.3L172.3,54l-1.6,5.1v3.1l28-36.9L228,62.2l30.1-35.5l29.3,32.8v-7.4l-1.7-2.3l44.9-48.9
	l33.2,47.8v81.3H393"/>
<polygon class="st6" points="35.4,71 40.5,71 45.7,71 45.7,55.7 40.5,55.7 35.4,55.7 "/>
<line class="st6" x1="40.5" y1="55.7" x2="40.5" y2="71"/>
<line class="st6" x1="45.7" y1="61.2" x2="35.4" y2="61.2"/>
<polygon class="st6" points="35.4,95.6 40.5,95.6 45.7,95.6 45.7,80.3 40.5,80.3 35.4,80.3 "/>
<line class="st6" x1="40.5" y1="80.3" x2="40.5" y2="95.6"/>
<line class="st6" x1="45.7" y1="85.9" x2="35.4" y2="85.9"/>
<polygon class="st6" points="60.3,71 65.4,71 70.5,71 70.5,55.7 65.4,55.7 60.3,55.7 "/>
<line class="st6" x1="65.4" y1="55.7" x2="65.4" y2="71"/>
<line class="st6" x1="70.5" y1="61.2" x2="60.3" y2="61.2"/>
<polygon class="st6" points="72.6,71 77.8,71 82.9,71 82.9,55.7 77.8,55.7 72.6,55.7 "/>
<line class="st6" x1="77.8" y1="55.7" x2="77.8" y2="71"/>
<line class="st6" x1="82.9" y1="61.2" x2="72.6" y2="61.2"/>
<polygon class="st6" points="60.3,94.9 65.4,94.9 70.5,94.9 70.5,79.5 65.4,79.5 60.3,79.5 "/>
<line class="st6" x1="65.4" y1="79.5" x2="65.4" y2="94.9"/>
<line class="st6" x1="70.5" y1="85.1" x2="60.3" y2="85.1"/>
<polygon class="st6" points="72.6,94.9 77.8,94.9 82.9,94.9 82.9,79.5 77.8,79.5 72.6,79.5 "/>
<line class="st6" x1="77.8" y1="79.5" x2="77.8" y2="94.9"/>
<line class="st6" x1="82.9" y1="85.1" x2="72.6" y2="85.1"/>
<polyline class="st7" points="24.4,98.5 90.8,98.5 90.8,128.5 "/>
<path class="st5" d="M83.6,128.5v-21.7h-38v21.2h-7.1v-17c0,0-12.7-6.8-20.4,0.3v16.3"/>
<circle class="st6" cx="58.4" cy="43.9" r="3.3"/>
<polyline class="st7" points="25.9,61.2 57.6,21.5 91.4,59.2 "/>
<polyline class="st5" points="96,58.7 134.3,16.2 171.1,58.2 "/>
<path class="st5" d="M97.8,128.5"/>
<line class="st5" x1="97.3" y1="92.9" x2="97.3" y2="128.5"/>
<polyline class="st7" points="97.3,95.7 170.6,95.7 170.6,62.2 "/>
<line class="st5" x1="170.6" y1="95.7" x2="170.6" y2="129.9"/>
<polyline class="st5" points="97.3,123.8 124.5,123.8 124.5,128.5 146.2,128.5 146.2,123.8 170.6,123.8 "/>
<polyline class="st5" points="101.8,123.8 101.8,102 122,102 122,123.8 "/>
<polyline class="st5" points="124.5,123.8 124.5,102 146.2,102 146.2,123.8 "/>
<polyline class="st5" points="148.2,123.8 148.2,102 166.6,102 166.6,123.8 "/>
<polygon class="st6" points="130.5,43.1 134.9,43.1 139.3,43.1 139.3,30.2 135.2,30.2 130.5,30.2 "/>
<rect x="109.9" y="49.7" class="st6" width="9.6" height="15.9"/>
<line class="st6" x1="114.7" y1="49.7" x2="114.7" y2="65.6"/>
<line class="st6" x1="109.9" y1="55.6" x2="119.5" y2="55.6"/>
<rect x="122.9" y="49.7" class="st6" width="9.6" height="15.9"/>
<line class="st6" x1="127.6" y1="49.7" x2="127.6" y2="65.6"/>
<line class="st6" x1="122.9" y1="55.6" x2="132.4" y2="55.6"/>
<rect x="136.7" y="49.7" class="st6" width="9.6" height="15.9"/>
<line class="st6" x1="141.5" y1="49.7" x2="141.5" y2="65.6"/>
<line class="st6" x1="136.7" y1="55.6" x2="146.2" y2="55.6"/>
<rect x="149.6" y="49.7" class="st6" width="9.6" height="15.9"/>
<line class="st6" x1="154.4" y1="49.7" x2="154.4" y2="65.6"/>
<line class="st6" x1="149.6" y1="55.6" x2="159.2" y2="55.6"/>
<rect x="177.3" y="63.8" class="st6" width="9.6" height="13.5"/>
<line class="st6" x1="182.1" y1="63.8" x2="182.1" y2="77.3"/>
<line class="st6" x1="177.3" y1="68.8" x2="186.9" y2="68.8"/>
<rect x="190.2" y="63.8" class="st6" width="9.6" height="13.5"/>
<line class="st6" x1="195" y1="63.8" x2="195" y2="77.3"/>
<line class="st6" x1="190.2" y1="68.8" x2="199.8" y2="68.8"/>
<rect x="211.8" y="63.8" class="st6" width="9.6" height="13.5"/>
<line class="st6" x1="216.6" y1="63.8" x2="216.6" y2="77.3"/>
<line class="st6" x1="211.8" y1="68.8" x2="221.4" y2="68.8"/>
<rect x="236.4" y="58.9" class="st6" width="8.8" height="17.6"/>
<line class="st6" x1="240.8" y1="58.9" x2="240.8" y2="76.4"/>
<line class="st6" x1="236.4" y1="65.4" x2="245.2" y2="65.4"/>
<rect x="253.3" y="58.9" class="st6" width="8.8" height="17.6"/>
<line class="st6" x1="257.7" y1="58.9" x2="257.7" y2="76.4"/>
<line class="st6" x1="253.3" y1="65.4" x2="262.1" y2="65.4"/>
<rect x="268.2" y="58.9" class="st6" width="8.8" height="17.6"/>
<line class="st6" x1="272.6" y1="58.9" x2="272.6" y2="76.4"/>
<line class="st6" x1="268.2" y1="65.4" x2="277" y2="65.4"/>
<rect x="268.2" y="82.4" class="st6" width="8.8" height="15.5"/>
<line class="st6" x1="272.6" y1="82.4" x2="272.6" y2="97.9"/>
<line class="st6" x1="268.2" y1="88.2" x2="277" y2="88.2"/>
<rect x="253.3" y="82.4" class="st6" width="8.8" height="15.5"/>
<line class="st6" x1="257.7" y1="82.4" x2="257.7" y2="97.9"/>
<line class="st6" x1="253.3" y1="88.2" x2="262.1" y2="88.2"/>
<polygon class="st6" points="243.8,97.9 235,97.9 235,94 235,82.4 243.8,82.4 "/>
<line class="st6" x1="239.4" y1="82.4" x2="239.4" y2="97.9"/>
<line class="st6" x1="235" y1="88.2" x2="243.8" y2="88.2"/>
<rect x="211.8" y="84.4" class="st6" width="9.6" height="13.5"/>
<line class="st6" x1="216.6" y1="84.4" x2="216.6" y2="97.9"/>
<line class="st6" x1="211.8" y1="89.4" x2="221.4" y2="89.4"/>
<rect x="190.2" y="84.4" class="st6" width="9.6" height="13.5"/>
<line class="st6" x1="195" y1="84.4" x2="195" y2="97.9"/>
<line class="st6" x1="190.2" y1="89.4" x2="199.8" y2="89.4"/>
<rect x="177.3" y="84.4" class="st6" width="9.6" height="13.5"/>
<line class="st6" x1="182.1" y1="84.4" x2="182.1" y2="97.9"/>
<line class="st6" x1="177.3" y1="89.4" x2="186.9" y2="89.4"/>
<rect x="109.9" y="75.3" class="st6" width="9.6" height="15.9"/>
<line class="st6" x1="114.7" y1="75.3" x2="114.7" y2="91.2"/>
<line class="st6" x1="109.9" y1="81.2" x2="119.5" y2="81.2"/>
<rect x="122.9" y="75.3" class="st6" width="9.6" height="15.9"/>
<line class="st6" x1="127.6" y1="75.3" x2="127.6" y2="91.2"/>
<line class="st6" x1="122.9" y1="81.2" x2="132.4" y2="81.2"/>
<rect x="136.7" y="75.3" class="st6" width="9.6" height="15.9"/>
<line class="st6" x1="141.5" y1="75.3" x2="141.5" y2="91.2"/>
<line class="st6" x1="136.7" y1="81.2" x2="146.2" y2="81.2"/>
<rect x="149.6" y="75.3" class="st6" width="9.6" height="15.9"/>
<line class="st6" x1="154.4" y1="75.3" x2="154.4" y2="91.2"/>
<line class="st6" x1="149.6" y1="81.2" x2="159.2" y2="81.2"/>
<line class="st6" x1="135.2" y1="30.2" x2="135.2" y2="43.1"/>
<line class="st6" x1="130.5" y1="35.5" x2="139.3" y2="35.5"/>
<line class="st6" x1="58.4" y1="40.6" x2="58.4" y2="47.2"/>
<line class="st6" x1="55.1" y1="43.9" x2="61.7" y2="43.9"/>
<circle class="st6" cx="199.8" cy="49.7" r="3.3"/>
<line class="st6" x1="199.8" y1="46.4" x2="199.8" y2="53"/>
<line class="st6" x1="196.5" y1="49.7" x2="203.1" y2="49.7"/>
<polyline class="st7" points="174.6,129.9 174.6,109 194.3,109 194.3,129.9 "/>
<polyline class="st5" points="198.7,129.9 198.7,109 224.3,109 224.3,129.9 "/>
<line class="st5" x1="228" y1="62.2" x2="228" y2="129.9"/>
<line class="st5" x1="215.2" y1="109" x2="215.2" y2="129.9"/>
<polyline class="st7" points="170.6,65.6 198.6,29.8 228,65.6 258.1,30.6 287.4,63.2 "/>
<polyline class="st5" points="287.4,59.5 287.4,68.8 287.4,129.2 "/>
<line class="st6" x1="243.8" y1="94.3" x2="235" y2="94.3"/>
<line class="st6" x1="253.3" y1="93.5" x2="262.1" y2="93.5"/>
<line class="st6" x1="268.2" y1="94.3" x2="277" y2="94.3"/>
<polyline class="st8" points="230.7,129.2 230.7,107.1 241.4,107.1 241.4,129.9 "/>
<polyline class="st7" points="243.8,129.9 243.8,107.8 278.3,107.8 278.3,129.9 "/>
<path class="st6" d="M255.2,50.8h2.8V44c0,0-0.2-1-1.3-1c-1.1,0-1.4,1-1.4,1V50.8z"/>
<path class="st5" d="M290.4,129.2v-22.7c0,0,1.7-5.4,9.3-5.4c7.5,0,8.5,5,8.5,5v23.1h14.5v-27.3h18.7v27.3"/>
<path class="st5" d="M326.1,129.9v-17.6c0,0,0.8-5.6,6.2-5.6s6,5.6,6,5.6v16.9"/>
<polyline class="st5" points="287.4,92 312.8,92 312.8,129.2 "/>
<rect x="329.6" y="51.7" class="st5" width="9.6" height="15.6"/>
<polyline class="st5" points="339.3,56.4 329.6,56.4 329.6,62.2 339.3,62.2 "/>
<line class="st5" x1="334.5" y1="51.7" x2="334.5" y2="67.2"/>
<rect x="303.1" y="51.7" class="st5" width="9.6" height="15.6"/>
<polyline class="st5" points="312.8,56.4 303.1,56.4 303.1,62.2 312.8,62.2 "/>
<line class="st5" x1="307.9" y1="51.7" x2="307.9" y2="67.2"/>
<rect x="303.1" y="76.4" class="st5" width="9.6" height="15.6"/>
<polyline class="st5" points="312.8,81.2 303.1,81.2 303.1,86.9 312.8,86.9 "/>
<line class="st5" x1="307.9" y1="76.4" x2="307.9" y2="92"/>
<rect x="329.6" y="76.4" class="st5" width="9.6" height="15.6"/>
<polyline class="st5" points="339.3,81.2 329.6,81.2 329.6,86.9 339.3,86.9 "/>
<line class="st5" x1="334.5" y1="76.4" x2="334.5" y2="92"/>
<rect x="344.3" y="76.4" class="st5" width="9.6" height="15.6"/>
<polyline class="st5" points="354,81.2 344.3,81.2 344.3,86.9 354,86.9 "/>
<line class="st5" x1="349.2" y1="76.4" x2="349.2" y2="92"/>
<rect x="344.3" y="52.1" class="st5" width="9.6" height="15.6"/>
<polyline class="st5" points="354,56.9 344.3,56.9 344.3,62.6 354,62.6 "/>
<line class="st5" x1="349.2" y1="52.1" x2="349.2" y2="67.7"/>
<circle class="st5" cx="327.6" cy="29.7" r="6.6"/>
<rect x="316.2" y="27.8" class="st5" width="3" height="9.4"/>
<rect x="336.7" y="27.8" class="st5" width="3" height="9.4"/>
<path class="st9" d="M328,24.5h-0.8c-0.1,0-0.2,0.1-0.2,0.2v0.8c0,0.1,0.1,0.2,0.2,0.2h0.8c0.1,0,0.2-0.1,0.2-0.2v-0.8
	C328.2,24.7,328.1,24.5,328,24.5z"/>
<path class="st9" d="M330.3,25.2h-0.8c-0.1,0-0.2,0.1-0.2,0.2v0.8c0,0.1,0.1,0.2,0.2,0.2h0.8c0.1,0,0.2-0.1,0.2-0.2v-0.8
	C330.5,25.3,330.4,25.2,330.3,25.2z"/>
<path class="st9" d="M332,26.8h-0.8c-0.1,0-0.2,0.1-0.2,0.2v0.8c0,0.1,0.1,0.2,0.2,0.2h0.8c0.1,0,0.2-0.1,0.2-0.2v-0.8
	C332.2,26.9,332.1,26.8,332,26.8z"/>
<path class="st9" d="M332.6,29h-0.8c-0.1,0-0.2,0.1-0.2,0.2v0.8c0,0.1,0.1,0.2,0.2,0.2h0.8c0.1,0,0.2-0.1,0.2-0.2v-0.8
	C332.9,29.1,332.8,29,332.6,29z"/>
<path class="st9" d="M327.3,24.5h0.8c0.1,0,0.2,0.1,0.2,0.2v0.8c0,0.1-0.1,0.2-0.2,0.2h-0.8c-0.1,0-0.2-0.1-0.2-0.2v-0.8
	C327,24.7,327.2,24.5,327.3,24.5z"/>
<path class="st9" d="M325,25.2h0.8c0.1,0,0.2,0.1,0.2,0.2v0.8c0,0.1-0.1,0.2-0.2,0.2H325c-0.1,0-0.2-0.1-0.2-0.2v-0.8
	C324.7,25.3,324.9,25.2,325,25.2z"/>
<path class="st9" d="M323.3,26.8h0.8c0.1,0,0.2,0.1,0.2,0.2v0.8c0,0.1-0.1,0.2-0.2,0.2h-0.8c-0.1,0-0.2-0.1-0.2-0.2v-0.8
	C323,26.9,323.2,26.8,323.3,26.8z"/>
<path class="st9" d="M322.6,29h0.8c0.1,0,0.2,0.1,0.2,0.2v0.8c0,0.1-0.1,0.2-0.2,0.2h-0.8c-0.1,0-0.2-0.1-0.2-0.2v-0.8
	C322.4,29.1,322.5,29,322.6,29z"/>
<path class="st9" d="M327.3,34.8h0.8c0.1,0,0.2-0.1,0.2-0.2v-0.8c0-0.1-0.1-0.2-0.2-0.2h-0.8c-0.1,0-0.2,0.1-0.2,0.2v0.8
	C327.1,34.7,327.2,34.8,327.3,34.8z"/>
<path class="st9" d="M325,34.1h0.8c0.1,0,0.2-0.1,0.2-0.2v-0.8c0-0.1-0.1-0.2-0.2-0.2H325c-0.1,0-0.2,0.1-0.2,0.2v0.8
	C324.8,34,324.9,34.1,325,34.1z"/>
<path class="st9" d="M323.3,32.5h0.8c0.1,0,0.2-0.1,0.2-0.2v-0.8c0-0.1-0.1-0.2-0.2-0.2h-0.8c-0.1,0-0.2,0.1-0.2,0.2v0.8
	C323.1,32.4,323.2,32.5,323.3,32.5z"/>
<path class="st9" d="M328.1,34.8h-0.8c-0.1,0-0.2-0.1-0.2-0.2v-0.8c0-0.1,0.1-0.2,0.2-0.2h0.8c0.1,0,0.2,0.1,0.2,0.2v0.8
	C328.4,34.7,328.3,34.8,328.1,34.8z"/>
<path class="st9" d="M330.4,34.1h-0.8c-0.1,0-0.2-0.1-0.2-0.2v-0.8c0-0.1,0.1-0.2,0.2-0.2h0.8c0.1,0,0.2,0.1,0.2,0.2v0.8
	C330.7,34,330.6,34.1,330.4,34.1z"/>
<path class="st9" d="M332.1,32.5h-0.8c-0.1,0-0.2-0.1-0.2-0.2v-0.8c0-0.1,0.1-0.2,0.2-0.2h0.8c0.1,0,0.2,0.1,0.2,0.2v0.8
	C332.4,32.4,332.3,32.5,332.1,32.5z"/>
<path class="st9" d="M326.9,30.3h1.5c0.1,0,0.2-0.1,0.2-0.2v-0.8c0-0.1-0.1-0.2-0.2-0.2h-1.5c-0.1,0-0.2,0.1-0.2,0.2v0.8
	C326.7,30.2,326.8,30.3,326.9,30.3z"/>
<polyline class="st5" points="287.4,52.1 330.5,4.9 363.8,53.3 "/>
<path class="st10" d="M0-22h15.7v-16.7c0,0,1.7-4.7,8.5-4.7c0.3-0.3,0-12.4,0-12.4H28v-1.9v-26l-3.9-7.4l33.8-41.9l35.3,39.6l-2.9,6
	V-56h7v-32L95-91.8v-3.1l39.2-43.3l38.1,43.3l-1.6,5.1v3.1l28-36.9L228-86.7l30.1-35.5l29.3,32.8v-7.4l-1.7-2.3l44.9-48.9l33.2,47.8
	V-19H393"/>
<polygon class="st11" points="35.4,-77.9 40.5,-77.9 45.7,-77.9 45.7,-93.2 40.5,-93.2 35.4,-93.2 "/>
<line class="st11" x1="40.5" y1="-93.2" x2="40.5" y2="-77.9"/>
<line class="st11" x1="45.7" y1="-87.6" x2="35.4" y2="-87.6"/>
<polygon class="st11" points="35.4,-53.2 40.5,-53.2 45.7,-53.2 45.7,-68.6 40.5,-68.6 35.4,-68.6 "/>
<line class="st11" x1="40.5" y1="-68.6" x2="40.5" y2="-53.2"/>
<line class="st11" x1="45.7" y1="-63" x2="35.4" y2="-63"/>
<polygon class="st11" points="60.3,-77.9 65.4,-77.9 70.5,-77.9 70.5,-93.2 65.4,-93.2 60.3,-93.2 "/>
<line class="st11" x1="65.4" y1="-93.2" x2="65.4" y2="-77.9"/>
<line class="st11" x1="70.5" y1="-87.6" x2="60.3" y2="-87.6"/>
<polygon class="st11" points="72.6,-77.9 77.8,-77.9 82.9,-77.9 82.9,-93.2 77.8,-93.2 72.6,-93.2 "/>
<line class="st11" x1="77.8" y1="-93.2" x2="77.8" y2="-77.9"/>
<line class="st11" x1="82.9" y1="-87.6" x2="72.6" y2="-87.6"/>
<polygon class="st11" points="60.3,-54 65.4,-54 70.5,-54 70.5,-69.3 65.4,-69.3 60.3,-69.3 "/>
<line class="st11" x1="65.4" y1="-69.3" x2="65.4" y2="-54"/>
<line class="st11" x1="70.5" y1="-63.8" x2="60.3" y2="-63.8"/>
<polygon class="st11" points="72.6,-54 77.8,-54 82.9,-54 82.9,-69.3 77.8,-69.3 72.6,-69.3 "/>
<line class="st11" x1="77.8" y1="-69.3" x2="77.8" y2="-54"/>
<line class="st11" x1="82.9" y1="-63.8" x2="72.6" y2="-63.8"/>
<polyline class="st12" points="24.4,-50.3 90.8,-50.3 90.8,-20.4 "/>
<path class="st10" d="M83.6-20.4v-21.7h-38V-21h-7.1v-17c0,0-12.7-6.8-20.4,0.3v16.3"/>
<circle class="st11" cx="58.4" cy="-105" r="3.3"/>
<polyline class="st12" points="25.9,-87.6 57.6,-127.4 91.4,-89.7 "/>
<polyline class="st10" points="96,-90.1 134.3,-132.7 171.1,-90.7 "/>
<path class="st10" d="M97.8-20.4"/>
<line class="st10" x1="97.3" y1="-56" x2="97.3" y2="-20.4"/>
<polyline class="st12" points="97.3,-53.2 170.6,-53.2 170.6,-86.7 "/>
<line class="st10" x1="170.6" y1="-53.2" x2="170.6" y2="-19"/>
<polyline class="st10" points="97.3,-25.1 124.5,-25.1 124.5,-20.4 146.2,-20.4 146.2,-25.1 170.6,-25.1 "/>
<polyline class="st10" points="101.8,-25.1 101.8,-46.8 122,-46.8 122,-25.1 "/>
<polyline class="st10" points="124.5,-25.1 124.5,-46.8 146.2,-46.8 146.2,-25.1 "/>
<polyline class="st10" points="148.2,-25.1 148.2,-46.8 166.6,-46.8 166.6,-25.1 "/>
<polygon class="st11" points="130.5,-105.8 134.9,-105.8 139.3,-105.8 139.3,-118.6 135.2,-118.6 130.5,-118.6 "/>
<rect x="109.9" y="-99.1" class="st11" width="9.6" height="15.9"/>
<line class="st11" x1="114.7" y1="-99.1" x2="114.7" y2="-83.2"/>
<line class="st11" x1="109.9" y1="-93.3" x2="119.5" y2="-93.3"/>
<rect x="122.9" y="-99.1" class="st11" width="9.6" height="15.9"/>
<line class="st11" x1="127.6" y1="-99.1" x2="127.6" y2="-83.2"/>
<line class="st11" x1="122.9" y1="-93.3" x2="132.4" y2="-93.3"/>
<rect x="136.7" y="-99.1" class="st11" width="9.6" height="15.9"/>
<line class="st11" x1="141.5" y1="-99.1" x2="141.5" y2="-83.2"/>
<line class="st11" x1="136.7" y1="-93.3" x2="146.2" y2="-93.3"/>
<rect x="149.6" y="-99.1" class="st11" width="9.6" height="15.9"/>
<line class="st11" x1="154.4" y1="-99.1" x2="154.4" y2="-83.2"/>
<line class="st11" x1="149.6" y1="-93.3" x2="159.2" y2="-93.3"/>
<rect x="177.3" y="-85.1" class="st11" width="9.6" height="13.5"/>
<line class="st11" x1="182.1" y1="-85.1" x2="182.1" y2="-71.6"/>
<line class="st11" x1="177.3" y1="-80.1" x2="186.9" y2="-80.1"/>
<rect x="190.2" y="-85.1" class="st11" width="9.6" height="13.5"/>
<line class="st11" x1="195" y1="-85.1" x2="195" y2="-71.6"/>
<line class="st11" x1="190.2" y1="-80.1" x2="199.8" y2="-80.1"/>
<rect x="211.8" y="-85.1" class="st11" width="9.6" height="13.5"/>
<line class="st11" x1="216.6" y1="-85.1" x2="216.6" y2="-71.6"/>
<line class="st11" x1="211.8" y1="-80.1" x2="221.4" y2="-80.1"/>
<rect x="236.4" y="-90" class="st11" width="8.8" height="17.6"/>
<line class="st11" x1="240.8" y1="-90" x2="240.8" y2="-72.4"/>
<line class="st11" x1="236.4" y1="-83.5" x2="245.2" y2="-83.5"/>
<rect x="253.3" y="-90" class="st11" width="8.8" height="17.6"/>
<line class="st11" x1="257.7" y1="-90" x2="257.7" y2="-72.4"/>
<line class="st11" x1="253.3" y1="-83.5" x2="262.1" y2="-83.5"/>
<rect x="268.2" y="-90" class="st11" width="8.8" height="17.6"/>
<line class="st11" x1="272.6" y1="-90" x2="272.6" y2="-72.4"/>
<line class="st11" x1="268.2" y1="-83.5" x2="277" y2="-83.5"/>
<rect x="268.2" y="-66.5" class="st11" width="8.8" height="15.5"/>
<line class="st11" x1="272.6" y1="-66.5" x2="272.6" y2="-50.9"/>
<line class="st11" x1="268.2" y1="-60.7" x2="277" y2="-60.7"/>
<rect x="253.3" y="-66.5" class="st11" width="8.8" height="15.5"/>
<line class="st11" x1="257.7" y1="-66.5" x2="257.7" y2="-50.9"/>
<line class="st11" x1="253.3" y1="-60.7" x2="262.1" y2="-60.7"/>
<polygon class="st11" points="243.8,-50.9 235,-50.9 235,-54.9 235,-66.5 243.8,-66.5 "/>
<line class="st11" x1="239.4" y1="-66.5" x2="239.4" y2="-50.9"/>
<line class="st11" x1="235" y1="-60.7" x2="243.8" y2="-60.7"/>
<rect x="211.8" y="-64.4" class="st11" width="9.6" height="13.5"/>
<line class="st11" x1="216.6" y1="-64.4" x2="216.6" y2="-50.9"/>
<line class="st11" x1="211.8" y1="-59.4" x2="221.4" y2="-59.4"/>
<rect x="190.2" y="-64.4" class="st11" width="9.6" height="13.5"/>
<line class="st11" x1="195" y1="-64.4" x2="195" y2="-50.9"/>
<line class="st11" x1="190.2" y1="-59.4" x2="199.8" y2="-59.4"/>
<rect x="177.3" y="-64.4" class="st11" width="9.6" height="13.5"/>
<line class="st11" x1="182.1" y1="-64.4" x2="182.1" y2="-50.9"/>
<line class="st11" x1="177.3" y1="-59.4" x2="186.9" y2="-59.4"/>
<rect x="109.9" y="-73.6" class="st11" width="9.6" height="15.9"/>
<line class="st11" x1="114.7" y1="-73.6" x2="114.7" y2="-57.7"/>
<line class="st11" x1="109.9" y1="-67.7" x2="119.5" y2="-67.7"/>
<rect x="122.9" y="-73.6" class="st11" width="9.6" height="15.9"/>
<line class="st11" x1="127.6" y1="-73.6" x2="127.6" y2="-57.7"/>
<line class="st11" x1="122.9" y1="-67.7" x2="132.4" y2="-67.7"/>
<rect x="136.7" y="-73.6" class="st11" width="9.6" height="15.9"/>
<line class="st11" x1="141.5" y1="-73.6" x2="141.5" y2="-57.7"/>
<line class="st11" x1="136.7" y1="-67.7" x2="146.2" y2="-67.7"/>
<rect x="149.6" y="-73.6" class="st11" width="9.6" height="15.9"/>
<line class="st11" x1="154.4" y1="-73.6" x2="154.4" y2="-57.7"/>
<line class="st11" x1="149.6" y1="-67.7" x2="159.2" y2="-67.7"/>
<line class="st11" x1="135.2" y1="-118.6" x2="135.2" y2="-105.8"/>
<line class="st11" x1="130.5" y1="-113.4" x2="139.3" y2="-113.4"/>
<line class="st11" x1="58.4" y1="-108.3" x2="58.4" y2="-101.7"/>
<line class="st11" x1="55.1" y1="-105" x2="61.7" y2="-105"/>
<circle class="st11" cx="199.8" cy="-99.1" r="3.3"/>
<line class="st11" x1="199.8" y1="-102.4" x2="199.8" y2="-95.8"/>
<line class="st11" x1="196.5" y1="-99.1" x2="203.1" y2="-99.1"/>
<polyline class="st12" points="174.6,-19 174.6,-39.9 194.3,-39.9 194.3,-19 "/>
<polyline class="st10" points="198.7,-19 198.7,-39.9 224.3,-39.9 224.3,-19 "/>
<line class="st10" x1="228" y1="-86.7" x2="228" y2="-19"/>
<line class="st10" x1="215.2" y1="-39.9" x2="215.2" y2="-19"/>
<polyline class="st12" points="170.6,-83.2 198.6,-119 228,-83.2 258.1,-118.2 287.4,-85.7 "/>
<polyline class="st10" points="287.4,-89.4 287.4,-80.1 287.4,-19.7 "/>
<line class="st11" x1="243.8" y1="-54.5" x2="235" y2="-54.5"/>
<line class="st11" x1="253.3" y1="-55.3" x2="262.1" y2="-55.3"/>
<line class="st11" x1="268.2" y1="-54.5" x2="277" y2="-54.5"/>
<polyline class="st13" points="230.7,-19.7 230.7,-41.8 241.4,-41.8 241.4,-19 "/>
<polyline class="st12" points="243.8,-19 243.8,-41.1 278.3,-41.1 278.3,-19 "/>
<path class="st11" d="M255.2-98.1h2.8v-6.8c0,0-0.2-1-1.3-1c-1.1,0-1.4,1-1.4,1V-98.1z"/>
<path class="st10" d="M290.4-19.7v-22.7c0,0,1.7-5.4,9.3-5.4c7.5,0,8.5,5,8.5,5v23.1h14.5V-47h18.7v27.3"/>
<path class="st10" d="M326.1-19v-17.6c0,0,0.8-5.6,6.2-5.6s6,5.6,6,5.6v16.9"/>
<polyline class="st10" points="287.4,-56.9 312.8,-56.9 312.8,-19.7 "/>
<rect x="329.6" y="-97.2" class="st10" width="9.6" height="15.6"/>
<polyline class="st10" points="339.3,-92.4 329.6,-92.4 329.6,-86.7 339.3,-86.7 "/>
<line class="st10" x1="334.5" y1="-97.2" x2="334.5" y2="-81.6"/>
<rect x="303.1" y="-97.2" class="st10" width="9.6" height="15.6"/>
<polyline class="st10" points="312.8,-92.4 303.1,-92.4 303.1,-86.7 312.8,-86.7 "/>
<line class="st10" x1="307.9" y1="-97.2" x2="307.9" y2="-81.6"/>
<rect x="303.1" y="-72.5" class="st10" width="9.6" height="15.6"/>
<polyline class="st10" points="312.8,-67.7 303.1,-67.7 303.1,-62 312.8,-62 "/>
<line class="st10" x1="307.9" y1="-72.5" x2="307.9" y2="-56.9"/>
<rect x="329.6" y="-72.5" class="st10" width="9.6" height="15.6"/>
<polyline class="st10" points="339.3,-67.7 329.6,-67.7 329.6,-62 339.3,-62 "/>
<line class="st10" x1="334.5" y1="-72.5" x2="334.5" y2="-56.9"/>
<rect x="344.3" y="-72.5" class="st10" width="9.6" height="15.6"/>
<polyline class="st10" points="354,-67.7 344.3,-67.7 344.3,-62 354,-62 "/>
<line class="st10" x1="349.2" y1="-72.5" x2="349.2" y2="-56.9"/>
<rect x="344.3" y="-96.8" class="st10" width="9.6" height="15.6"/>
<polyline class="st10" points="354,-92 344.3,-92 344.3,-86.3 354,-86.3 "/>
<line class="st10" x1="349.2" y1="-96.8" x2="349.2" y2="-81.2"/>
<circle class="st10" cx="327.6" cy="-119.2" r="6.6"/>
<rect x="316.2" y="-121" class="st10" width="3" height="9.4"/>
<rect x="336.7" y="-121" class="st10" width="3" height="9.4"/>
<path d="M328-124.3h-0.8c-0.1,0-0.2,0.1-0.2,0.2v0.8c0,0.1,0.1,0.2,0.2,0.2h0.8c0.1,0,0.2-0.1,0.2-0.2v-0.8
	C328.2-124.2,328.1-124.3,328-124.3z"/>
<path d="M330.3-123.7h-0.8c-0.1,0-0.2,0.1-0.2,0.2v0.8c0,0.1,0.1,0.2,0.2,0.2h0.8c0.1,0,0.2-0.1,0.2-0.2v-0.8
	C330.5-123.6,330.4-123.7,330.3-123.7z"/>
<path d="M332-122h-0.8c-0.1,0-0.2,0.1-0.2,0.2v0.8c0,0.1,0.1,0.2,0.2,0.2h0.8c0.1,0,0.2-0.1,0.2-0.2v-0.8
	C332.2-121.9,332.1-122,332-122z"/>
<path d="M332.6-119.9h-0.8c-0.1,0-0.2,0.1-0.2,0.2v0.8c0,0.1,0.1,0.2,0.2,0.2h0.8c0.1,0,0.2-0.1,0.2-0.2v-0.8
	C332.9-119.7,332.8-119.9,332.6-119.9z"/>
<path d="M327.3-124.3h0.8c0.1,0,0.2,0.1,0.2,0.2v0.8c0,0.1-0.1,0.2-0.2,0.2h-0.8c-0.1,0-0.2-0.1-0.2-0.2v-0.8
	C327-124.2,327.2-124.3,327.3-124.3z"/>
<path d="M325-123.7h0.8c0.1,0,0.2,0.1,0.2,0.2v0.8c0,0.1-0.1,0.2-0.2,0.2H325c-0.1,0-0.2-0.1-0.2-0.2v-0.8
	C324.7-123.6,324.9-123.7,325-123.7z"/>
<path d="M323.3-122h0.8c0.1,0,0.2,0.1,0.2,0.2v0.8c0,0.1-0.1,0.2-0.2,0.2h-0.8c-0.1,0-0.2-0.1-0.2-0.2v-0.8
	C323-121.9,323.2-122,323.3-122z"/>
<path d="M322.6-119.9h0.8c0.1,0,0.2,0.1,0.2,0.2v0.8c0,0.1-0.1,0.2-0.2,0.2h-0.8c-0.1,0-0.2-0.1-0.2-0.2v-0.8
	C322.4-119.7,322.5-119.9,322.6-119.9z"/>
<path d="M327.3-114.1h0.8c0.1,0,0.2-0.1,0.2-0.2v-0.8c0-0.1-0.1-0.2-0.2-0.2h-0.8c-0.1,0-0.2,0.1-0.2,0.2v0.8
	C327.1-114.2,327.2-114.1,327.3-114.1z"/>
<path d="M325-114.7h0.8c0.1,0,0.2-0.1,0.2-0.2v-0.8c0-0.1-0.1-0.2-0.2-0.2H325c-0.1,0-0.2,0.1-0.2,0.2v0.8
	C324.8-114.8,324.9-114.7,325-114.7z"/>
<path d="M323.3-116.4h0.8c0.1,0,0.2-0.1,0.2-0.2v-0.8c0-0.1-0.1-0.2-0.2-0.2h-0.8c-0.1,0-0.2,0.1-0.2,0.2v0.8
	C323.1-116.5,323.2-116.4,323.3-116.4z"/>
<path d="M328.1-114.1h-0.8c-0.1,0-0.2-0.1-0.2-0.2v-0.8c0-0.1,0.1-0.2,0.2-0.2h0.8c0.1,0,0.2,0.1,0.2,0.2v0.8
	C328.4-114.2,328.3-114.1,328.1-114.1z"/>
<path d="M330.4-114.7h-0.8c-0.1,0-0.2-0.1-0.2-0.2v-0.8c0-0.1,0.1-0.2,0.2-0.2h0.8c0.1,0,0.2,0.1,0.2,0.2v0.8
	C330.7-114.8,330.6-114.7,330.4-114.7z"/>
<path d="M332.1-116.4h-0.8c-0.1,0-0.2-0.1-0.2-0.2v-0.8c0-0.1,0.1-0.2,0.2-0.2h0.8c0.1,0,0.2,0.1,0.2,0.2v0.8
	C332.4-116.5,332.3-116.4,332.1-116.4z"/>
<path d="M326.9-118.6h1.5c0.1,0,0.2-0.1,0.2-0.2v-0.8c0-0.1-0.1-0.2-0.2-0.2h-1.5c-0.1,0-0.2,0.1-0.2,0.2v0.8
	C326.7-118.7,326.8-118.6,326.9-118.6z"/>
<polyline class="st10" points="287.4,-96.8 330.5,-144 363.8,-95.6 "/>
</svg>
