<?xml version="1.0" encoding="UTF-8"?><svg id="a" xmlns="http://www.w3.org/2000/svg" viewBox="0 0 392.99 130.38"><defs><style>.b{stroke-width:.75px;}.b,.c,.d,.e,.f{stroke:#3a2212;stroke-miterlimit:10;}.b,.c,.e,.f{fill:none;}.c{stroke-width:1.03px;}.d{fill:#231f20;}.e{stroke-width:2px;}</style></defs><path class="f" d="M0,126.84H15.73v-16.7s1.75-4.66,8.55-4.66c.29-.29,0-12.43,0-12.43h3.69v-27.97l-3.88-7.38L57.87,15.75l35.35,39.62-2.91,6.02v31.46h6.99V60.81l-2.33-3.69v-3.11L134.2,10.7l38.07,43.31-1.62,5.09v3.07l28.03-36.9,29.33,36.9,30.1-35.54,29.33,32.82v-7.38l-1.75-2.33L330.55,.8l33.21,47.78v81.31h29.23"/><polygon class="b" points="35.39 71 40.53 71 45.66 71 45.66 55.66 40.53 55.66 35.39 55.66 35.39 71"/><line class="b" x1="40.53" y1="55.66" x2="40.53" y2="71"/><line class="b" x1="45.66" y1="61.22" x2="35.39" y2="61.22"/><polygon class="b" points="35.39 95.63 40.53 95.63 45.66 95.63 45.66 80.29 40.53 80.29 35.39 80.29 35.39 95.63"/><line class="b" x1="40.53" y1="80.29" x2="40.53" y2="95.63"/><line class="b" x1="45.66" y1="85.85" x2="35.39" y2="85.85"/><polygon class="b" points="60.27 71 65.4 71 70.54 71 70.54 55.66 65.4 55.66 60.27 55.66 60.27 71"/><line class="b" x1="65.4" y1="55.66" x2="65.4" y2="71"/><line class="b" x1="70.54" y1="61.22" x2="60.27" y2="61.22"/><polygon class="b" points="72.64 71 77.78 71 82.92 71 82.92 55.66 77.78 55.66 72.64 55.66 72.64 71"/><line class="b" x1="77.78" y1="55.66" x2="77.78" y2="71"/><line class="b" x1="82.92" y1="61.22" x2="72.64" y2="61.22"/><polygon class="b" points="60.27 94.89 65.4 94.89 70.54 94.89 70.54 79.54 65.4 79.54 60.27 79.54 60.27 94.89"/><line class="b" x1="65.4" y1="79.54" x2="65.4" y2="94.89"/><line class="b" x1="70.54" y1="85.11" x2="60.27" y2="85.11"/><polygon class="b" points="72.64 94.89 77.78 94.89 82.92 94.89 82.92 79.54 77.78 79.54 72.64 79.54 72.64 94.89"/><line class="b" x1="77.78" y1="79.54" x2="77.78" y2="94.89"/><line class="b" x1="82.92" y1="85.11" x2="72.64" y2="85.11"/><polyline class="e" points="24.38 98.53 90.82 98.53 90.82 128.46"/><path class="f" d="M83.63,128.46v-21.73H45.66v21.15h-7.07v-16.98s-12.66-6.76-20.43,.29v16.27"/><circle class="b" cx="58.43" cy="43.86" r="3.3"/><polyline class="e" points="25.94 61.22 57.6 21.49 91.37 59.21"/><polyline class="f" points="95.99 58.74 134.3 16.22 171.05 58.2"/><line class="f" x1="97.3" y1="92.85" x2="97.3" y2="128.46"/><polyline class="e" points="97.3 95.7 170.65 95.7 170.65 62.17"/><line class="f" x1="170.65" y1="95.7" x2="170.65" y2="129.88"/><polyline class="f" points="97.3 123.79 124.47 123.79 124.47 128.46 146.24 128.46 146.24 123.79 170.65 123.79"/><polyline class="f" points="101.81 123.79 101.81 102.03 121.98 102.03 121.98 123.79"/><polyline class="f" points="124.47 123.79 124.47 102.03 146.24 102.03 146.24 123.79"/><polyline class="f" points="148.23 123.79 148.23 102.03 166.58 102.03 166.58 123.79"/><polygon class="b" points="130.55 43.06 134.91 43.06 139.27 43.06 139.27 30.24 135.16 30.24 130.55 30.24 130.55 43.06"/><rect class="b" x="109.91" y="49.73" width="9.57" height="15.9"/><line class="b" x1="114.69" y1="49.73" x2="114.69" y2="65.63"/><line class="b" x1="109.91" y1="55.62" x2="119.48" y2="55.62"/><rect class="b" x="122.86" y="49.73" width="9.57" height="15.9"/><line class="b" x1="127.65" y1="49.73" x2="127.65" y2="65.63"/><line class="b" x1="122.86" y1="55.62" x2="132.44" y2="55.62"/><rect class="b" x="136.67" y="49.73" width="9.57" height="15.9"/><line class="b" x1="141.46" y1="49.73" x2="141.46" y2="65.63"/><line class="b" x1="136.67" y1="55.62" x2="146.24" y2="55.62"/><rect class="b" x="149.65" y="49.73" width="9.57" height="15.9"/><line class="b" x1="154.44" y1="49.73" x2="154.44" y2="65.63"/><line class="b" x1="149.65" y1="55.62" x2="159.22" y2="55.62"/><rect class="b" x="177.34" y="63.82" width="9.57" height="13.48"/><line class="b" x1="182.13" y1="63.82" x2="182.13" y2="77.3"/><line class="b" x1="177.34" y1="68.81" x2="186.91" y2="68.81"/><rect class="b" x="190.21" y="63.82" width="9.57" height="13.48"/><line class="b" x1="195" y1="63.82" x2="195" y2="77.3"/><line class="b" x1="190.21" y1="68.81" x2="199.78" y2="68.81"/><rect class="b" x="211.8" y="63.82" width="9.57" height="13.48"/><line class="b" x1="216.59" y1="63.82" x2="216.59" y2="77.3"/><line class="b" x1="211.8" y1="68.81" x2="221.37" y2="68.81"/><rect class="b" x="236.37" y="58.89" width="8.79" height="17.56"/><line class="b" x1="240.76" y1="58.89" x2="240.76" y2="76.45"/><line class="b" x1="236.37" y1="65.39" x2="245.16" y2="65.39"/><rect class="b" x="253.32" y="58.89" width="8.79" height="17.56"/><line class="b" x1="257.72" y1="58.89" x2="257.72" y2="76.45"/><line class="b" x1="253.32" y1="65.39" x2="262.11" y2="65.39"/><rect class="b" x="268.18" y="58.89" width="8.79" height="17.56"/><line class="b" x1="272.58" y1="58.89" x2="272.58" y2="76.45"/><line class="b" x1="268.18" y1="65.39" x2="276.97" y2="65.39"/><rect class="b" x="268.18" y="82.41" width="8.79" height="15.52"/><line class="b" x1="272.58" y1="82.41" x2="272.58" y2="97.93"/><line class="b" x1="268.18" y1="88.15" x2="276.97" y2="88.15"/><rect class="b" x="253.32" y="82.41" width="8.79" height="15.52"/><line class="b" x1="257.72" y1="82.41" x2="257.72" y2="97.93"/><line class="b" x1="253.32" y1="88.15" x2="262.11" y2="88.15"/><polygon class="b" points="243.82 97.93 235.03 97.93 235.03 93.95 235.03 82.41 243.82 82.41 243.82 97.93"/><line class="b" x1="239.43" y1="82.41" x2="239.43" y2="97.93"/><line class="b" x1="235.03" y1="88.15" x2="243.82" y2="88.15"/><rect class="b" x="211.8" y="84.45" width="9.57" height="13.48"/><line class="b" x1="216.59" y1="84.45" x2="216.59" y2="97.93"/><line class="b" x1="211.8" y1="89.44" x2="221.37" y2="89.44"/><rect class="b" x="190.21" y="84.45" width="9.57" height="13.48"/><line class="b" x1="195" y1="84.45" x2="195" y2="97.93"/><line class="b" x1="190.21" y1="89.44" x2="199.78" y2="89.44"/><rect class="b" x="177.34" y="84.45" width="9.57" height="13.48"/><line class="b" x1="182.13" y1="84.45" x2="182.13" y2="97.93"/><line class="b" x1="177.34" y1="89.44" x2="186.91" y2="89.44"/><rect class="b" x="109.91" y="75.29" width="9.57" height="15.9"/><line class="b" x1="114.69" y1="75.29" x2="114.69" y2="91.19"/><line class="b" x1="109.91" y1="81.18" x2="119.48" y2="81.18"/><rect class="b" x="122.86" y="75.29" width="9.57" height="15.9"/><line class="b" x1="127.65" y1="75.29" x2="127.65" y2="91.19"/><line class="b" x1="122.86" y1="81.18" x2="132.44" y2="81.18"/><rect class="b" x="136.67" y="75.29" width="9.57" height="15.9"/><line class="b" x1="141.46" y1="75.29" x2="141.46" y2="91.19"/><line class="b" x1="136.67" y1="81.18" x2="146.24" y2="81.18"/><rect class="b" x="149.65" y="75.29" width="9.57" height="15.9"/><line class="b" x1="154.44" y1="75.29" x2="154.44" y2="91.19"/><line class="b" x1="149.65" y1="81.18" x2="159.22" y2="81.18"/><line class="b" x1="135.16" y1="30.24" x2="135.16" y2="43.06"/><line class="b" x1="130.55" y1="35.47" x2="139.27" y2="35.47"/><line class="b" x1="58.43" y1="40.56" x2="58.43" y2="47.16"/><line class="b" x1="55.13" y1="43.86" x2="61.74" y2="43.86"/><circle class="b" cx="199.78" cy="49.73" r="3.3"/><line class="b" x1="199.78" y1="46.43" x2="199.78" y2="53.04"/><line class="b" x1="196.48" y1="49.73" x2="203.08" y2="49.73"/><polyline class="e" points="174.56 129.88 174.56 108.99 194.28 108.99 194.28 129.88"/><polyline class="f" points="198.67 129.88 198.67 108.99 224.34 108.99 224.34 129.88"/><line class="f" x1="228" y1="62.17" x2="228" y2="129.88"/><line class="f" x1="215.18" y1="108.99" x2="215.18" y2="129.88"/><polyline class="e" points="170.65 65.63 198.59 29.84 228 65.63 258.13 30.65 287.43 63.19"/><polyline class="f" points="287.43 59.45 287.43 68.81 287.43 129.22"/><line class="b" x1="243.82" y1="94.34" x2="235.03" y2="94.34"/><line class="b" x1="253.32" y1="93.54" x2="262.11" y2="93.54"/><line class="b" x1="268.18" y1="94.34" x2="276.97" y2="94.34"/><polyline class="c" points="230.73 129.22 230.73 107.06 241.37 107.06 241.37 129.88"/><polyline class="e" points="243.82 129.88 243.82 107.77 278.33 107.77 278.33 129.88"/><path class="b" d="M255.15,50.81h2.78v-6.76s-.21-1.04-1.35-1.04-1.43,1.01-1.43,1.01v6.79Z"/><path class="f" d="M290.43,129.22v-22.71s1.74-5.4,9.26-5.4,8.49,5.01,8.49,5.01v23.1h14.46v-27.34h18.71v27.34"/><path class="f" d="M326.11,129.88v-17.59s.77-5.59,6.17-5.59,5.98,5.59,5.98,5.59v16.93"/><polyline class="f" points="287.43 91.97 312.76 91.97 312.76 129.22"/><rect class="f" x="329.63" y="51.66" width="9.65" height="15.57"/><polyline class="f" points="339.28 56.43 329.63 56.43 329.63 62.16 339.28 62.16"/><line class="f" x1="334.46" y1="51.66" x2="334.46" y2="67.24"/><rect class="f" x="303.11" y="51.66" width="9.65" height="15.57"/><polyline class="f" points="312.76 56.43 303.11 56.43 303.11 62.16 312.76 62.16"/><line class="f" x1="307.93" y1="51.66" x2="307.93" y2="67.24"/><rect class="f" x="303.11" y="76.39" width="9.65" height="15.57"/><polyline class="f" points="312.76 81.15 303.11 81.15 303.11 86.89 312.76 86.89"/><line class="f" x1="307.93" y1="76.39" x2="307.93" y2="91.96"/><rect class="f" x="329.63" y="76.39" width="9.65" height="15.57"/><polyline class="f" points="339.28 81.15 329.63 81.15 329.63 86.89 339.28 86.89"/><line class="f" x1="334.46" y1="76.39" x2="334.46" y2="91.96"/><rect class="f" x="344.33" y="76.39" width="9.65" height="15.57"/><polyline class="f" points="353.98 81.15 344.33 81.15 344.33 86.89 353.98 86.89"/><line class="f" x1="349.15" y1="76.39" x2="349.15" y2="91.96"/><rect class="f" x="344.33" y="52.09" width="9.65" height="15.57"/><polyline class="f" points="353.98 56.86 344.33 56.86 344.33 62.59 353.98 62.59"/><line class="f" x1="349.15" y1="52.09" x2="349.15" y2="67.67"/><circle class="f" cx="327.58" cy="29.67" r="6.64"/><rect class="f" x="316.2" y="27.83" width="3.01" height="9.38"/><rect class="f" x="336.73" y="27.83" width="3.01" height="9.38"/><rect class="d" x="326.93" y="24.54" width="1.3" height="1.3" rx=".25" ry=".25"/><rect class="d" x="329.24" y="25.19" width="1.3" height="1.3" rx=".25" ry=".25"/><rect class="d" x="330.94" y="26.83" width="1.3" height="1.3" rx=".25" ry=".25"/><rect class="d" x="331.59" y="29.02" width="1.3" height="1.3" rx=".25" ry=".25"/><rect class="d" x="327.05" y="24.54" width="1.3" height="1.3" rx=".25" ry=".25" transform="translate(655.4 50.39) rotate(-180)"/><rect class="d" x="324.74" y="25.19" width="1.3" height="1.3" rx=".25" ry=".25" transform="translate(650.79 51.69) rotate(-180)"/><rect class="d" x="323.04" y="26.83" width="1.3" height="1.3" rx=".25" ry=".25" transform="translate(647.39 54.95) rotate(-180)"/><rect class="d" x="322.39" y="29.02" width="1.3" height="1.3" rx=".25" ry=".25" transform="translate(646.09 59.34) rotate(-180)"/><rect class="d" x="327.07" y="33.5" width="1.3" height="1.3" rx=".25" ry=".25" transform="translate(655.44 68.3) rotate(180)"/><rect class="d" x="324.76" y="32.85" width="1.3" height="1.3" rx=".25" ry=".25" transform="translate(650.83 67) rotate(180)"/><rect class="d" x="323.06" y="31.22" width="1.3" height="1.3" rx=".25" ry=".25" transform="translate(647.43 63.73) rotate(180)"/><rect class="d" x="327.07" y="33.5" width="1.3" height="1.3" rx=".25" ry=".25"/><rect class="d" x="329.38" y="32.85" width="1.3" height="1.3" rx=".25" ry=".25"/><rect class="d" x="331.08" y="31.22" width="1.3" height="1.3" rx=".25" ry=".25"/><rect class="d" x="326.7" y="29.02" width="2" height="1.3" rx=".25" ry=".25" transform="translate(655.4 59.34) rotate(180)"/><polyline class="f" points="287.43 52.07 330.54 4.87 363.76 53.27"/></svg>