<?xml version="1.0" encoding="utf-8"?>
<!-- Generator: Adobe Illustrator 26.2.1, SVG Export Plug-In . SVG Version: 6.00 Build 0)  -->
<svg version="1.1" id="Layer_1" xmlns="http://www.w3.org/2000/svg" xmlns:xlink="http://www.w3.org/1999/xlink" x="0px" y="0px"
	 viewBox="0 0 106 61.1" style="enable-background:new 0 0 106 61.1;" xml:space="preserve">
<style type="text/css">
	.st0{fill:#FFFFFF;stroke:#F2F2F3;stroke-width:0.9433;stroke-miterlimit:10;}
	.st1{fill:#FFFFFF;stroke:#F2F2F3;stroke-width:0.8643;stroke-miterlimit:10;}
</style>
<path class="st0" d="M101.9,10.5H4.1c-2,0-3.6-1.6-3.6-3.6V4.1c0-2,1.6-3.6,3.6-3.6h97.8c2,0,3.6,1.6,3.6,3.6v2.7
	C105.5,8.8,103.9,10.5,101.9,10.5z"/>
<path class="st1" d="M93.5,35.6H12.5c-2,0-3.6-1.6-3.6-3.6v-2.7c0-2,1.6-3.6,3.6-3.6h80.9c2,0,3.6,1.6,3.6,3.6v2.7
	C97.1,33.9,95.5,35.6,93.5,35.6z"/>
<path class="st0" d="M101.9,60.6H4.1c-2,0-3.6-1.6-3.6-3.6v-2.7c0-2,1.6-3.6,3.6-3.6h97.8c2,0,3.6,1.6,3.6,3.6V57
	C105.5,59,103.9,60.6,101.9,60.6z"/>
</svg>
